<svg width="428" height="926" viewBox="0 0 428 926" fill="none" xmlns="http://www.w3.org/2000/svg">
<path fill-rule="evenodd" clip-rule="evenodd" d="M301.713 103.263C305.74 101.849 309.513 100.078 310.097 99.329C310.681 98.5787 308.096 99.2918 304.351 100.914C300.607 102.536 297.733 103.297 297.963 102.605C298.194 101.914 300.135 100.591 302.277 99.6671C306.88 97.6821 307.694 96.8858 305.433 96.5804C304.316 96.4301 304.527 95.8573 306.078 94.832C307.345 93.9938 308.137 93.1177 307.837 92.8839C307.232 92.4132 301.514 96.4936 296.066 101.283C291.153 105.602 293.102 106.285 301.713 103.263ZM316.975 107.091C318.593 106.292 322.598 103.409 325.877 100.684C331.041 96.3939 332.072 94.9674 333.584 90.0313C335.247 84.6037 335.549 84.2519 339.902 82.6642C345.89 80.4801 347.27 82.883 343.764 89.3842C342.245 92.2029 341.749 93.9031 342.664 93.1603C343.578 92.4185 345.123 89.7963 346.098 87.3341C347.982 82.5719 349.856 81.246 349.6 84.8569C349.516 86.0544 349.767 86.6358 350.159 86.1512C350.551 85.6649 350.743 84.0232 350.586 82.5017C350.33 80.0414 350.93 79.5652 356.016 78.1893C360.498 76.9766 361.468 77.0733 360.505 78.6391C359.829 79.7377 356.932 84.256 354.067 88.6813C351.202 93.1066 349.236 97.0211 349.699 97.3817C352.662 99.6893 364.575 86.7533 365.656 80.0569C366.274 76.2146 366.609 75.8849 371.011 74.7761L375.706 73.592L371.246 81.2098C366.693 88.9821 366.493 91.3622 370.646 88.321C374.221 85.7027 376.553 82.3237 377.947 77.7409C379.073 74.0435 379.738 73.4341 383.734 72.4393C389.911 70.9028 390.606 69.5063 384.544 70.814C380.037 71.7868 379.268 71.5207 374.439 67.3252C369.942 63.4198 369.631 63.288 372.207 66.3859L375.201 69.9863L371.918 67.8197L368.635 65.653L371.151 68.8042C373.446 71.6783 373.252 71.6462 368.949 68.4412C365.661 65.9931 364.905 65.0118 366.453 65.2042C368.357 65.4425 368.492 65.192 367.4 63.4571C365.934 61.1289 362.487 59.7197 361.467 61.0299C360.555 62.2001 363.543 65.9534 368.444 69.7972C373.592 73.8348 371.222 75.6973 365.626 72.0118C363.413 70.5555 361.308 69.743 360.947 70.2056C360.586 70.6692 359.565 70.7827 358.679 70.4593C357.791 70.1351 358.263 70.5318 359.725 71.3412C364.38 73.915 363.681 75.5191 357.31 76.8776C352.913 77.8165 350.335 77.5825 348.371 76.0695C346.852 74.9007 344.556 73.8603 343.268 73.7594C341.461 73.6174 341.622 73.8975 343.972 74.9825L347.018 76.3889L343.456 76.4297C341.495 76.4517 338.58 76.3656 336.977 76.2386C335.373 76.1117 336.528 76.4836 339.544 77.0663C342.559 77.649 345.196 78.2583 345.405 78.4205C346.054 78.9266 337.766 82.4857 334.743 82.9997C333.159 83.2681 330.412 82.3872 328.641 81.0405L325.42 78.5925L327.638 82.4671C328.858 84.5978 329.455 87.3195 328.965 88.5149C328.203 90.3734 328.457 90.434 330.724 88.9325C333.19 87.2977 333.327 87.3496 332.686 89.6802C331.526 93.9014 327.9 97.9203 322.415 101.064L317.178 104.064L321.887 96.8002L326.594 89.5355L319.833 97.8412C312.85 106.417 311.862 109.616 316.975 107.091ZM341.14 118.433C349.315 117.307 359.426 112.783 365.215 107.661C370.173 103.276 371.107 102.85 370.903 105.071C369.45 120.818 369.096 135.786 370.178 135.683C370.918 135.614 370.772 136.004 369.852 136.549C368.13 137.572 367.206 141.969 368.744 141.823C369.801 141.724 376.238 128.325 377.719 123.139C379.61 116.518 378.671 104.475 375.96 100.574L373.403 96.8976L380.75 86.7166L388.096 76.5366L379.287 87.8119C371.328 97.9984 370.014 99.2111 365.673 100.376C363.031 101.084 356.505 104.13 351.172 107.144C335.446 116.033 332.22 119.662 341.14 118.433ZM399.863 161.83C400.628 160.063 402.099 157.52 403.134 156.179C404.811 154.006 404.765 153.883 402.71 155.043C400.713 156.171 400.613 155.727 401.955 151.744C402.807 149.213 403.23 146.458 402.896 145.623C402.56 144.789 402.235 144.736 402.172 145.509C401.958 148.121 398.416 160.312 397.97 159.965C397.727 159.775 397.744 156.801 398.006 153.356C398.269 149.911 398.164 148.018 397.773 149.152C396.48 152.9 396.177 163.253 397.335 164.155C398.058 164.719 398.982 163.869 399.863 161.83ZM315.571 94.2235C317.58 91.7701 321.027 89.2566 323.622 88.3544C329.914 86.1641 329.796 85.8943 322.334 85.4268C316.001 85.0293 311.42 83.2462 314.251 82.2812C315.056 82.0071 314.73 81.5192 313.467 81.108C311.857 80.5836 311.483 80.8485 312.001 82.1405C312.417 83.1747 311.614 82.9352 310.019 81.5504L307.34 79.2232L311.252 79.1476C313.404 79.1058 317.338 79.1371 319.993 79.2171C322.648 79.2971 323.728 79.1051 322.392 78.7917C319.208 78.0439 302.071 77.9616 301.399 78.6923C300.618 79.5405 316.864 86.4436 319.139 86.2289C323.027 85.8621 322.815 87.4606 318.83 88.5634C311.318 90.6419 309.198 91.8622 310.855 93.1529C311.675 93.7915 312.762 93.8763 313.27 93.3412C313.778 92.8061 313.712 93.7514 313.125 95.4413C312.237 97.9979 312.648 97.7934 315.571 94.2235ZM342.733 114.681C341.979 114.58 341.474 114.351 341.613 114.173C342.508 113.023 360.348 103.412 363.277 102.5C367.903 101.062 369.482 102.278 365.778 104.426C364.203 105.34 362.68 106.924 362.391 107.945C362.102 108.966 357.655 111.585 352.509 113.763C347.362 115.943 343.365 117.082 343.627 116.296C343.889 115.509 343.487 114.783 342.733 114.681ZM333.183 108.558C335.746 108.315 338.765 102.863 338.235 99.4315C337.698 95.9558 337.685 95.957 335.912 99.5742C332.58 106.366 331.877 108.681 333.183 108.558ZM353.149 111.701C357.666 109.647 361.586 107.628 361.862 107.216C362.139 106.804 358.4 108.192 353.552 110.302C348.705 112.411 344.785 114.429 344.839 114.787C344.895 115.145 348.634 113.756 353.149 111.701ZM370.995 120.606C371.518 113.497 372.222 106.14 372.559 104.256L373.174 100.831L373.917 105.314C374.326 107.78 374.286 113.681 373.83 118.427C373.372 123.174 373.46 126.465 374.023 125.742C375.233 124.189 376.211 111.287 375.373 107.937C375.052 106.658 375.143 105.16 375.572 104.608C376.793 103.041 377.905 110.109 377.458 116.596C377.236 119.823 375.961 124.1 374.623 126.1C373.287 128.1 371.931 130.763 371.611 132.016C370.322 137.067 370.095 132.859 370.995 120.606ZM390.359 140.709C395.575 139.873 396.705 139.129 400.411 134.093L404.586 128.421L399.621 133.492C396.624 136.553 393.406 138.681 391.504 138.861C388.494 139.145 388.496 139.026 391.55 136.205C393.864 134.067 394.077 133.592 392.322 134.484L389.896 135.718L390.875 133.357C391.413 132.058 390.012 133.25 387.76 136.006C385.507 138.761 383.849 141.158 384.074 141.333C384.299 141.508 387.127 141.227 390.359 140.709ZM345.008 96.8509C347.334 93.9389 349.297 90.6938 349.37 89.6405C349.444 88.5708 347.753 90.3577 345.542 93.6857C340.14 101.814 339.899 103.247 345.008 96.8509ZM320.387 83.053C323.44 83.0982 323.441 83.071 320.42 82.3529C318.689 81.9417 317.116 81.8092 316.923 82.057C316.343 82.8006 317.046 83.0026 320.387 83.053ZM402.026 141.35C404.564 139.523 404.577 139.53 405.481 143.227C405.982 145.267 406.12 144.282 405.788 141.036C405.127 134.557 406.233 125.8 407.58 126.849C408.048 127.213 408.559 128.338 408.715 129.346C408.91 130.608 409.36 130.717 410.16 129.69C410.798 128.871 410.702 127.719 409.945 127.129C407.654 125.345 409.796 124.146 412.637 125.623C414.097 126.382 413.499 125.795 411.309 124.319C408.178 122.208 407.194 120.629 406.704 116.936C405.907 110.92 407.01 109.595 410.942 111.846C413.476 113.297 413.358 113.032 410.339 110.493C405.083 106.071 407.111 104.621 412.586 108.886C417.816 112.959 422.2 118.91 422.774 122.713C423.132 125.09 423.034 125.173 421.887 123.471C421.178 122.417 419.016 119.929 417.082 117.94L413.566 114.326L416.578 118.628C418.235 120.993 418.984 122.984 418.241 123.05C417.5 123.118 418.611 124.509 420.711 126.145C424.143 128.819 424.568 128.85 424.919 126.451C425.133 124.984 423.933 121.146 422.25 117.923C419.739 113.112 417.951 111.239 412.264 107.462C405.721 103.116 405.3 102.583 404.671 97.8466L404.006 92.8331L411.806 98.6385L419.606 104.445L413.364 98.632C409.107 94.668 408.082 93.278 410.141 94.2606C412.647 95.4551 412.582 95.2919 409.764 93.2984C406.092 90.7021 407.023 89.5407 411.639 90.9594C413.644 91.5762 414.022 91.4334 412.893 90.4836C412.003 89.7373 409.284 89.077 406.853 89.0192C402.432 88.9149 402.43 88.9133 401.883 85.3683C401.335 81.8233 401.337 81.8232 406.191 84.553C408.862 86.0542 410.986 86.8823 410.91 86.3923C410.835 85.9032 408.54 84.4151 405.809 83.086C401.194 80.8389 399.881 78.5269 403.796 79.5407C404.743 79.7854 404.285 79.418 402.776 78.722C401.267 78.026 400.219 77.219 400.446 76.9274C401.429 75.6658 408.751 77.4496 413.937 80.2129L419.572 83.2166L414.398 79.7174C411.104 77.4906 407.001 75.9865 403.113 75.5799C394.292 74.6589 391.747 71.179 395.804 65.5849L398.803 61.4523L394.297 65.7505C389.585 70.2474 387.501 73.7309 388.882 74.8064C389.329 75.155 390.172 74.2875 390.754 72.8774C391.608 70.8049 392.057 70.7066 393.101 72.3632C393.81 73.4904 394.7 74.6564 395.078 74.9539C395.455 75.2507 392.898 79.265 389.397 83.8745C382.077 93.5091 381.347 97.6384 387.743 93.241C390.011 91.6816 393.039 88.5072 394.471 86.1874C396.73 82.5307 396.498 82.6607 392.723 87.1682C387.318 93.6224 386.818 90.2531 392.155 83.3496C395.493 79.0346 395.793 78.9244 398.129 81.1677C399.482 82.4664 400.841 85.1505 401.146 87.1326C401.669 90.5097 401.489 90.7942 398.272 91.6848C396.384 92.207 394.191 93.5539 393.397 94.6779C392.491 95.962 393.351 95.7791 395.715 94.1828C401.038 90.5882 399.033 94.4739 391.752 101.862C387.564 106.111 386.187 106.994 386.687 105.11L387.373 102.521L385.889 104.488C385.073 105.57 383.884 107.781 383.248 109.402C382.105 112.311 382.156 112.326 387.335 110.56C391.818 109.03 393.28 107.748 397.436 101.698C400.108 97.8062 402.577 94.8428 402.922 95.1119C403.268 95.381 403.783 97.5098 404.069 99.8422C404.46 103.025 403.905 104.639 401.847 106.309C393.692 112.924 394.024 112.6 396.689 111.338L399.183 110.158L397.863 112.253C396.924 113.744 397.427 113.684 399.602 112.046C401.991 110.246 401.601 111.159 397.817 116.214C394.66 120.431 391.95 122.94 390.031 123.422C386.533 124.3 386.712 122.816 390.903 116.201C392.853 113.123 392.312 113.526 388.853 117.728C382.733 125.162 382.43 127.975 387.932 126.265C390.78 125.378 393.894 122.794 398.332 117.634L404.664 110.267L405.556 115.327C406.048 118.11 405.86 121.007 405.14 121.767C404.419 122.525 403.075 124.226 402.152 125.544C400.781 127.506 400.908 127.942 402.848 127.938C405.846 127.933 405.455 132.434 401.903 138.824C399.773 142.655 399.788 142.96 402.026 141.35ZM340.126 92.2678C341.355 90.648 341.543 89.9296 340.545 90.6713C339.546 91.413 338.542 92.7387 338.312 93.6168C338.082 94.4949 338.898 93.8875 340.126 92.2678ZM419.562 150.235C419.978 149.701 419.869 148.913 419.32 148.485C418.771 148.058 419.016 147.307 419.866 146.818C420.716 146.329 421.04 144.685 420.59 143.163C419.889 140.801 419.802 140.742 419.997 142.763C420.431 147.271 419.051 146.603 417.217 141.419C416.204 138.557 414.468 135.918 413.361 135.557C411.83 135.059 411.514 135.321 412.045 136.646C412.431 137.606 413.642 138.683 414.735 139.039C415.947 139.434 416.14 139.885 415.23 140.196C414.397 140.48 414.657 142.878 415.813 145.601C418.178 151.17 418.512 151.584 419.562 150.235ZM398.226 130.494C399.267 129.158 399.459 128.428 398.653 128.874C397.846 129.319 396.994 130.412 396.76 131.304C396.526 132.194 397.185 131.83 398.226 130.494ZM343.297 86.1486C344.338 84.8122 344.53 84.0826 343.724 84.5288C342.917 84.9733 342.065 86.0667 341.831 86.9587C341.597 87.8489 342.256 87.485 343.297 86.1486ZM332.302 78.2151C335.163 79.1932 338.353 79.8847 339.39 79.7508C340.589 79.5953 340.084 79.2531 338 78.8094C336.199 78.4256 334.315 77.493 333.816 76.7368C333.316 75.9807 331.099 74.9625 328.888 74.4741C322.595 73.0849 323.918 71.7445 330.864 72.4704C334.313 72.8312 337.278 72.9404 337.455 72.714C337.935 72.0978 330.307 71.0741 324.704 71.003L319.782 70.9406L323.441 73.6886C325.453 75.1998 329.441 77.236 332.302 78.2151ZM391.897 119.318C393.354 117.447 393.738 116.517 392.75 117.25C391.762 117.983 390.569 119.514 390.101 120.652C389.631 121.788 390.44 121.189 391.897 119.318ZM355.528 90.9902C356.189 90.7648 356.471 89.9385 356.157 89.1533C355.52 87.5672 359.608 81.8081 362.59 80.0913C365.991 78.1333 364.594 82.4722 359.853 88.5955C357.074 92.1834 355.262 93.7312 354.899 92.8271C354.584 92.0418 354.867 91.2155 355.528 90.9902ZM420.964 139.005C421.102 137.311 418.891 131.952 418.343 132.655C418.168 132.88 418.657 134.763 419.429 136.841C420.201 138.919 420.893 139.893 420.964 139.005ZM413.613 132.915C413.43 131.705 412.83 130.759 412.281 130.811C411.73 130.863 411.879 131.852 412.611 133.01C413.67 134.681 413.875 134.663 413.613 132.915ZM359.431 86.8739C360.264 85.703 360.199 85.2824 359.266 85.8008C358.422 86.2704 357.806 87.1381 357.897 87.7274C357.988 88.3168 358.678 87.9329 359.431 86.8739ZM394.239 101.622L398.233 98.4865L395.181 102.619C393.502 104.892 391.161 107.284 389.978 107.935C387.964 109.045 387.904 108.982 389.036 106.939C389.702 105.74 392.043 103.347 394.239 101.622ZM389.298 99.3349C390.526 97.7152 390.714 96.9968 389.716 97.7385C388.717 98.4802 387.713 99.8059 387.483 100.684C387.253 101.562 388.069 100.955 389.298 99.3349ZM413.548 117.938C413.023 117.078 412.106 116.42 411.512 116.476C410.919 116.532 411.349 117.235 412.468 118.04C413.706 118.929 414.13 118.889 413.548 117.938ZM353.573 71.1643C352.342 69.8198 351.213 68.0218 351.063 67.1669C350.91 66.2917 351.715 66.6488 352.909 67.9878C354.771 70.0769 354.858 70.0651 353.64 67.8883C352.377 65.6373 345.157 62.8245 344.105 64.1755C343.908 64.4292 346.46 66.6548 349.779 69.1225C353.097 71.5901 354.804 72.5088 353.573 71.1643ZM320.772 40.9997C327.894 39.8558 333.832 36.9443 336.814 33.1302C337.983 31.6358 341.125 30.0526 343.852 29.5828C347.115 29.021 348.086 29.1933 346.726 30.0896C345.597 30.8338 344.278 32.6178 343.797 34.0544C342.953 36.5718 343.016 36.5992 345.561 34.8174C347.625 33.3709 347.464 33.9264 344.823 37.3661C342.843 39.9447 341.697 40.8344 342.054 39.5176C342.562 37.638 342.075 37.5696 339.07 39.0958C337.095 40.098 334.688 42.2568 333.721 43.8942C332.011 46.785 332.125 46.8003 337.772 44.4295C342.846 42.2992 344.179 41.065 348.293 34.6893C352.743 27.7939 353.275 27.3555 357.861 26.8237L362.718 26.2611L362.299 29.4767C361.949 32.1708 362.11 32.4131 363.287 30.9647C364.06 30.0129 364.947 29.8662 365.256 30.6385C365.969 32.4164 366.66 31.5461 367.141 28.2661C367.42 26.3568 368.503 25.4901 371.393 24.8635C373.526 24.4011 375.21 23.6235 375.135 23.1371C374.861 21.3619 378.507 25.4574 379.832 28.4113C381.353 31.8077 381.909 31.604 382.52 27.4274C382.868 25.0515 383.786 24.4749 387.996 23.9859C394.426 23.2404 394.915 23.6932 391.686 27.4099C390.055 29.2865 389.923 29.6861 391.335 28.4596C394.025 26.1275 398.149 25.4934 398.533 27.3527C398.683 28.0717 399.134 27.5788 399.538 26.2566C400.031 24.6414 401.601 23.6846 404.318 23.3427C408.397 22.8282 412.775 24.9365 411.373 26.7375C410.956 27.2721 411.068 28.062 411.621 28.4926C412.253 28.9849 412.949 28.1512 413.493 26.2448C414.22 23.7007 414.894 23.3542 417.698 24.0892C420.608 24.8503 420.862 25.2244 419.67 26.9866C418.917 28.1005 418.076 29.5386 417.801 30.1832C417.526 30.8278 415.657 33.5878 413.646 36.3161C411.635 39.0443 410.337 41.5468 410.763 41.8786C411.189 42.2103 413.859 39.02 416.699 34.7898C419.538 30.5597 422.224 27.3814 422.667 27.7268C425.318 29.7919 428.26 36.9688 427.084 38.5052C426.306 39.5242 426.387 40.0937 427.276 39.854C429.543 39.2439 431.797 41.5077 430.975 43.5673C430.341 45.1552 430.266 45.0966 430.303 43.0436C430.38 38.7607 429.338 41.9207 428.603 48.1972C427.662 56.2385 426.471 57.7223 426.018 51.4182C425.822 48.6892 425.463 47.7065 425.22 49.2351C424.976 50.7628 424.92 54.2324 425.094 56.9446L425.409 61.8748L428.453 57.9765C430.128 55.8329 431.834 51.7664 432.247 48.9395C432.792 45.1932 433.435 43.9358 434.619 44.2978C435.533 44.5771 435.48 44.1453 434.499 43.3121C432.184 41.345 433.736 39.4715 436.134 41.3389C437.16 42.1381 439.4 42.8507 441.112 42.9242C444.737 43.0774 443.879 41.9372 439.758 41.1248C438.201 40.8188 436.167 39.5005 435.238 38.196C433.695 36.0255 434.046 35.896 439.391 36.6677C442.719 37.147 446.768 38.7407 448.802 40.3705C451.975 42.9132 451.473 42.8804 444.302 40.0855C439.864 38.3557 436.289 37.3079 436.359 37.7588C436.428 38.2079 438.101 39.1082 440.076 39.7576C442.052 40.4078 443.921 41.5704 444.232 42.3434C444.856 43.8992 454.28 46.1015 455.208 44.9099C455.529 44.4969 453.682 42.5144 451.101 40.5039C446.14 36.6397 439.933 34.7237 433.422 35.048C429.714 35.2331 429.294 34.9638 426.24 30.4423L422.996 25.6408L431.726 13.8308C436.641 7.1806 441.207 1.94996 442.176 1.85852C444.247 1.66313 445.737 6.4294 446.526 15.7744C447.06 22.0968 446.212 21.8501 444.438 15.1664C443.651 12.2032 443.608 12.1883 443.682 14.918C443.754 17.5604 446.479 24.4111 447.898 25.5164C448.221 25.7678 448.879 23.6138 449.362 20.7307C450.366 14.7214 447.962 0.580603 445.626 -1.23867C444.466 -2.14229 444.948 -3.70334 447.472 -7.21846L450.888 -11.975L447.095 -7.90247C444.119 -4.70767 442.089 -3.7641 437.677 -3.52611C434.583 -3.35936 433.146 -3.14184 434.483 -3.04376C440.023 -2.6354 440.184 -2.37141 436.428 0.134292C434.418 1.47659 432.528 2.25923 432.228 1.87419C431.928 1.48914 429.552 1.44672 426.948 1.78073C424.343 2.11473 422.766 2.82909 423.442 3.36778C424.219 3.98875 423.864 4.24825 422.477 4.0748C419.796 3.74059 418.813 1.7631 420.869 0.842408C421.696 0.471687 420.98 0.449147 419.279 0.790632C413.608 1.9317 413.86 3.40188 419.944 4.67212C424.588 5.64137 430.366 4.91174 435.633 2.69023C439.398 1.10314 439.229 1.44144 430.865 12.2497L422.193 23.4536L417.709 22.6871C414.251 22.0957 412.936 21.3102 411.965 19.2578C411.271 17.7932 410.237 16.6382 409.666 16.693C409.094 16.747 409.168 17.2127 409.83 17.7276C410.492 18.2433 410.692 19.1023 410.276 19.6369C409.86 20.1714 408.099 19.5028 406.364 18.1518C404.524 16.7181 403.791 15.4959 404.604 15.2192C406.211 14.6704 404.349 13.1451 400.625 11.9603C396.76 10.7301 398.612 14.1952 404.108 18.4763L408.628 21.9968L404.139 21.9197C400.698 21.8598 398.607 20.9189 395.176 17.8837C391.207 14.3743 391.049 14.3226 393.769 17.4311C396.515 20.5679 396.544 20.8893 394.052 20.4878C392.52 20.2406 390.421 19.1059 389.388 17.9669C387.577 15.9694 387.56 15.9836 388.895 18.371C389.656 19.7337 390.775 20.9284 391.381 21.0288C393.837 21.4319 391.163 22.574 387.248 22.7948C384.948 22.9236 381.158 22.0204 378.825 20.7862C376.494 19.5527 374.534 19.1695 374.471 19.9372C374.406 20.7394 372.497 19.8344 369.968 17.8019C366.873 15.3132 366.334 14.513 368.145 15.0896C371.923 16.2928 370.195 13.232 365.825 10.9824C363.806 9.94375 361.9 9.42114 361.588 9.82256C360.842 10.7799 365.454 15.9576 370.675 20.0235C374.765 23.2098 374.778 23.2681 371.45 23.7505C369.091 24.0919 366.606 23.163 363.231 20.6781C358.427 17.1394 358.415 17.1396 361.444 20.6423C363.886 23.4655 363.959 23.7972 361.806 22.3046C359.854 20.949 359.323 20.9684 359.869 22.373C360.504 24.006 360.339 24.219 358.805 23.7396C357.322 23.2762 357.248 23.3966 358.398 24.3922C359.398 25.2587 358.555 25.7704 355.492 26.1566C352.364 26.5509 349.998 25.8322 346.886 23.5413C342.794 20.5307 342.712 20.5304 345.12 23.5198L347.647 26.6574L343.626 24.7341C341.036 23.4962 339.854 23.4313 340.304 24.5532C340.688 25.5102 341.869 26.5748 342.928 26.9206C344.503 27.4331 344.356 27.7532 342.126 28.6768C340.626 29.2983 338.278 29.3703 336.91 28.8384C334.077 27.736 325.045 29.0807 323.713 30.804C323.227 31.4325 324.855 31.2419 327.332 30.3796C335.087 27.6812 334.045 30.0768 325.974 33.502C321.167 35.5422 318.325 36.1112 318.4 35.0199C318.466 34.0609 317.235 34.9092 315.664 36.9071C314.095 38.9048 313.225 40.8635 313.734 41.2595C314.242 41.6555 317.41 41.5385 320.772 40.9997ZM360.198 74.3439C360.987 74.0749 360.701 73.5895 359.525 73.2061C357.235 72.4613 356.365 72.9036 357.848 74.0586C358.383 74.4747 359.439 74.6028 360.198 74.3439ZM375.213 80.1961C376.212 79.4544 376.023 80.1728 374.795 81.7925C373.566 83.4123 372.75 84.0197 372.98 83.1416C373.21 82.2635 374.215 80.9378 375.213 80.1961ZM326.16 35.2783C335.706 31.2375 337.661 31.3177 332.444 35.5372C329.792 37.683 318.877 40.5806 317.496 39.5051C317.24 39.3059 321.139 37.4035 326.16 35.2783ZM358.359 68.2102C360.149 68.7186 360.559 68.5528 359.567 67.7234C358.74 67.0307 357.036 66.3468 355.781 66.2022C353.002 65.8818 354.63 67.1501 358.359 68.2102ZM456.504 134.714C460.127 130.062 460.725 120.909 458.295 107.272C456.991 99.9601 456.542 94.8381 457.296 95.8908C460.132 99.8484 474.697 113.815 475.873 113.705C478.023 113.502 474.945 103.018 471.395 98.4471C469.511 96.0224 467.617 94.0714 467.187 94.1128C466.757 94.1525 468.069 96.2611 470.102 98.796C472.136 101.331 473.873 104.633 473.964 106.133C474.112 108.585 473.923 108.59 472.096 106.17C470.466 104.011 470.198 103.938 470.742 105.798C471.264 107.585 470.005 106.808 465.263 102.414C459.01 96.6214 456.881 92.7817 459.438 91.9092C460.39 91.5843 459.998 91.2755 458.231 90.9614C456.171 90.5938 455.061 88.8921 453.03 82.9891L450.448 75.4829L452.169 83.4504C453.497 89.6071 453.391 91.7467 451.699 92.8646C450.243 93.8267 450.067 94.3873 451.17 94.5362C452.275 94.686 451.79 96.2013 449.722 99.0692C447.285 102.447 447.2 102.823 449.326 100.805C450.818 99.3899 452.779 98.1504 453.686 98.0522C456.067 97.7925 457.297 106.042 455.267 108.649C453.383 111.068 452.359 126.168 453.621 132.921L454.449 137.352L456.504 134.714ZM427.733 108.637C429.75 109.549 429.844 109.168 428.501 105.524C427.659 103.239 426.255 100.854 425.381 100.221C424.506 99.5888 424.58 100.452 425.544 102.138C426.99 104.665 426.924 105.029 425.175 104.208C424.008 103.66 422.736 103.617 422.35 104.112C421.623 105.046 423.759 106.843 427.733 108.637ZM454.508 118.249C454.758 114.354 455.157 110.917 455.397 110.61C455.96 109.887 457.929 111.94 458.813 114.175C459.945 117.037 458.277 128.628 456.651 129.182C454.55 129.899 453.955 126.869 454.508 118.249ZM456.729 128.043C457.091 127.579 457.374 125.826 457.361 124.148C457.336 121.204 457.295 121.191 456.207 123.757C455.085 126.408 455.48 129.648 456.729 128.043ZM443.696 114.773C445.648 113.719 448.379 111.017 449.767 108.767L452.291 104.676L448.876 108.703C446.249 111.8 444.849 112.522 442.811 111.833C440.495 111.049 440.16 111.3 440.155 113.812C440.15 116.513 440.365 116.571 443.696 114.773ZM356.273 43.2126C359.278 41.2856 362.488 38.3406 363.408 36.668C364.913 33.9344 364.79 33.9531 362.206 36.8516C360.623 38.6246 358.249 40.6406 356.929 41.3298C354.938 42.3696 354.95 41.9812 357.003 39.0454C359.295 35.7675 359.278 35.6385 356.759 37.2935C352.93 39.8097 348.732 45.0956 349.863 45.9767C350.384 46.3824 353.269 45.1394 356.273 43.2126ZM366.817 48.8329C373.701 44.854 379.088 39.3507 380.149 35.2109C380.837 32.5282 380.483 32.8039 378.133 36.7798C376.533 39.4873 373.191 43.0499 370.514 44.9L365.746 48.1973L368.421 44.0348C369.893 41.7455 370.991 39.1368 370.86 38.2369C370.664 36.8848 361.366 49.9559 361.424 51.502C361.433 51.7433 363.86 50.5418 366.817 48.8329ZM422.101 96.455C421.005 95.2293 418.917 93.6036 417.461 92.8406C416.003 92.0785 416.9 93.0817 419.452 95.0697C422.005 97.0576 423.197 97.6817 422.101 96.455ZM419.759 90.2959C424.059 91.7867 424.193 91.7335 422.918 89.0397C421.276 85.5701 420.337 84.7635 420.179 86.6911C420.107 87.5778 418.279 86.8164 415.563 84.7665C413.089 82.9007 409.848 81.0228 408.361 80.5931C406.611 80.0891 407.777 81.2237 411.658 83.8048C415.962 86.6667 416.875 87.6026 414.881 87.1118C410.813 86.1088 414.362 88.4269 419.759 90.2959ZM458.082 117.862C458.301 116.362 458.202 114.442 457.862 113.595C457.522 112.746 457.147 113.821 457.029 115.982C456.781 120.559 457.499 121.842 458.082 117.862ZM334.682 23.3863C334.046 21.7532 334.223 21.5267 335.81 21.937C336.845 22.2041 336.12 21.5665 334.202 20.5192C330.902 18.7198 330.884 18.6215 333.863 18.7025C338.163 18.8208 336.453 17.725 331.495 17.1843L327.475 16.7469L329.455 19.3453C332.514 23.3566 335.597 25.7403 334.682 23.3863ZM446.313 107.046C447.353 105.71 447.546 104.98 446.739 105.426C445.932 105.871 445.081 106.964 444.847 107.856C444.612 108.747 445.272 108.383 446.313 107.046ZM444.733 102.693C445.774 101.356 445.966 100.627 445.16 101.073C444.353 101.517 443.501 102.611 443.267 103.503C443.032 104.393 443.692 104.029 444.733 102.693ZM390.503 55.8291C395.183 55.5047 397.995 54.6171 398.351 53.3534C398.658 52.2699 399.357 51.7339 399.906 52.1612C400.456 52.5893 401.575 52.2306 402.392 51.3647C403.21 50.4996 402.494 52.225 400.801 55.2006L397.723 60.6113L402.193 55.2061C408.555 47.5125 411.433 48.7637 411.458 59.2307C411.464 61.9911 412.099 64.2222 412.866 64.1876C413.635 64.1528 413.445 64.4319 412.444 64.8064C411.084 65.3166 410.27 63.504 409.212 57.6047L407.801 49.7215L407.944 56.08C408.131 64.2985 409.485 71.3405 410.856 71.2121C414.741 70.8446 415.769 52.0242 412.062 49.1366C411.014 48.3206 410.281 46.5193 410.431 45.1337C410.632 43.2849 410.408 42.9792 409.586 43.9851C408.972 44.7392 406.628 45.588 404.379 45.8714C400.625 46.3436 400.503 46.4568 402.897 47.2359C405.469 48.0729 405.45 48.1027 401.4 49.3618C399.142 50.0639 395.246 51.3861 392.742 52.2995C390.237 53.213 387.996 53.483 387.761 52.8991C387.528 52.316 385.972 52.5114 384.308 53.3339C379.906 55.508 382.142 56.4082 390.503 55.8291ZM358.359 32.9444C359.191 31.7735 359.126 31.3528 358.194 31.8712C357.349 32.3408 356.733 33.2086 356.824 33.7979C356.915 34.3873 357.605 34.0033 358.359 32.9444ZM434.967 91.0681C436.242 90.4057 439.262 87.1878 441.679 83.917C445.009 79.409 445.951 78.6312 445.572 80.7031C445.199 82.7347 445.75 82.2406 447.714 78.781C449.903 74.9283 450.962 74.1125 453.865 74.0438C455.794 73.9987 457.293 73.4431 457.195 72.8094C457.096 72.1766 457.933 72.3165 459.053 73.1213C460.173 73.9268 460.686 73.919 460.193 73.1073C459.7 72.2938 457.143 71.4761 454.508 71.2898C451.817 71.0988 449.197 70.1232 448.529 69.0614C447.516 67.4523 447.363 67.5595 447.498 69.7882C447.716 73.4111 437.37 89.0386 436.093 87.0122C435.061 85.3725 434.346 86.0901 433.33 89.7926C432.659 92.2404 432.68 92.2565 434.967 91.0681ZM393.356 53.1609C395.552 52.2145 397.416 51.8882 397.501 52.4367C397.659 53.4574 390.82 56.0154 389.884 55.286C389.599 55.0644 391.161 54.1074 393.356 53.1609ZM380.614 47.2852C382.671 46.45 389.134 35.9633 388.091 35.1504C387.004 34.3038 384.795 37.0887 381.584 43.3557C380.326 45.8113 379.888 47.5788 380.614 47.2852ZM394.832 49.6664C397.754 48.5641 399.936 47.5 399.681 47.3016C398.971 46.7482 389.298 50.2292 389.416 50.996C389.473 51.367 391.911 50.7687 394.832 49.6664ZM387.47 44.7157C389.091 43.7748 391.952 40.9096 393.829 38.347L397.24 33.6883L392.298 38.4275C389.58 41.0343 386.425 43.6724 385.287 44.2886C384.151 44.9055 383.512 45.6385 383.871 45.918C384.229 46.1967 385.848 45.6558 387.47 44.7157ZM352.745 20.1123C350.774 17.9623 349.965 16.7293 350.948 17.3732C352.636 18.4783 358.331 18.2173 356.897 17.1001C356.526 16.8109 354.075 15.9426 351.452 15.1689C345.206 13.3287 345.173 15.8325 351.382 20.3912L356.327 24.0211L352.745 20.1123ZM442.467 87.5933C443.497 87.0008 444.708 85.9815 445.16 85.3293C445.61 84.6772 444.718 84.8442 443.177 85.7009C441.636 86.5587 440.425 87.577 440.485 87.9657C440.545 88.3545 441.437 88.1875 442.467 87.5933ZM433.026 76.2893C436.087 73.7105 440.49 65.2606 441.161 60.6723C441.6 57.6663 442.194 57.8822 444.239 61.7921C445.643 64.4773 445.664 64.4671 444.868 61.5013C444.414 59.8124 443.592 57.9962 443.041 57.4656C442.489 56.9341 443.69 57.2503 445.71 58.1674L449.381 59.8354L446.439 57.2314L443.496 54.6284L449.054 56.0013C452.111 56.7566 454.01 56.8881 453.275 56.292C452.54 55.6976 450.61 54.9485 448.986 54.6289C446.734 54.185 446.432 53.9119 447.709 53.4752C450.279 52.5988 458.016 55.2458 461.729 58.2723L465.056 60.9833L459.883 59.1157C455.338 57.4742 455.167 57.5002 458.471 59.3325C463.654 62.2078 462.404 62.9363 455.437 61.1011C452.224 60.2552 450.226 60.07 450.998 60.6905C451.771 61.311 456.06 62.4363 460.529 63.1898C467.394 64.3494 468.435 64.2071 467.238 62.2803C463.265 55.8752 453.168 51.3429 444.311 51.9867C440.208 52.2856 438.923 53.0931 435.77 57.3538C432.704 61.4981 432.574 61.9571 435.022 59.9926C437.93 57.6578 437.942 57.7152 435.681 63.1497C432.703 70.3016 432.007 71.0256 432.411 66.5479C432.807 62.1449 432.287 63.3817 430.292 71.581C429.464 74.9838 429.075 77.9948 429.428 78.273C429.782 78.5513 431.4 77.6584 433.026 76.2893ZM375.726 29.4237C377.38 27.2766 377.761 26.3518 376.573 27.369C375.384 28.3861 374.031 30.1429 373.565 31.2728C373.099 32.4028 374.072 31.5708 375.726 29.4237ZM412.499 56.8947C412.577 53.3546 412.826 52.7179 413.357 54.7021C414.111 57.5243 413.762 62.954 412.87 62.2592C412.605 62.0528 412.439 59.6398 412.499 56.8947ZM468.681 101.531C467.88 100.513 466.255 99.2473 465.072 98.7195C463.89 98.1908 464.546 99.0231 466.531 100.569C468.516 102.115 469.483 102.547 468.681 101.531ZM432.692 70.8349C433.578 70.3254 435.262 67.5973 436.436 64.7715C440.507 54.977 440.641 54.7608 440.179 58.7406C439.488 64.6735 435.521 72.5671 433.364 72.3033C430.897 72.0011 430.849 71.8966 432.692 70.8349ZM401.867 40.7214C403.489 40.4153 404.767 38.9477 406.173 35.7785C408.137 31.3553 408.127 31.3274 405.672 34.2697C404.297 35.9177 402.502 37.0163 401.682 36.7109C400.649 36.3248 400.097 36.9191 399.877 38.6562C399.606 40.7998 399.892 41.096 401.867 40.7214ZM377.288 17.8245C376.186 16.593 374.323 15.1559 373.148 14.6311C371.973 14.1062 372.875 15.1143 375.152 16.8707C377.429 18.6271 378.39 19.056 377.288 17.8245ZM458.457 79.0272C461.081 80.0403 461.29 79.9594 459.643 78.5686C458.543 77.6404 456.618 76.7621 455.363 76.6175C452.7 76.3105 453.954 77.2872 458.457 79.0272ZM383.202 19.298C384.537 19.924 386.349 20.3878 387.229 20.3282C388.109 20.2686 386.649 19.2718 383.983 18.115C376.799 14.9944 376.144 15.9855 383.202 19.298ZM466.931 83.0382C467.99 83.4335 469.72 84.0835 470.777 84.4818C473.95 85.6808 470.185 78.8787 465.959 75.7772L462.269 73.0699L465.852 76.9787L469.434 80.8875L465.081 77.9681L460.727 75.0489L463.993 78.3013C466.745 81.0412 466.837 81.4252 464.579 80.7396C461.647 79.8501 463.66 81.8177 466.931 83.0382ZM409.685 34.7924C411.142 32.9214 411.525 31.9911 410.538 32.7245C409.55 33.4571 408.357 34.9889 407.889 36.1263C407.419 37.2629 408.228 36.6634 409.685 34.7924ZM378.492 12.9184C378.813 11.7832 380.013 11.452 381.589 12.0652C383.005 12.6169 384.111 12.7259 384.046 12.3097C383.982 11.8933 381.374 10.8661 378.25 10.0272C372.294 8.427 371.209 9.50823 375.452 12.8134C377.226 14.195 378.123 14.2256 378.492 12.9184ZM429.759 48.8663C430.128 46.5774 430.662 44.8854 430.946 45.1063C431.23 45.3272 431.159 47.3806 430.79 49.6695C430.421 51.9583 429.886 53.6504 429.603 53.4295C429.319 53.2086 429.389 51.1551 429.759 48.8663ZM426.547 44.3452C426.905 43.0849 426.749 42.0966 426.198 42.1485C425.648 42.1995 425.354 43.2304 425.545 44.4398C425.822 46.1859 426.027 46.1656 426.547 44.3452ZM388.43 14.0474C387.905 13.1874 386.988 12.5291 386.394 12.5852C385.801 12.6412 386.23 13.3445 387.35 14.1493C388.588 15.0384 389.011 14.9984 388.43 14.0474ZM369.683 -9.09198C376.661 -10.9022 376.781 -10.9872 376.854 -14.2035C376.894 -15.9787 376.653 -15.8524 375.802 -13.6559C375.117 -11.8883 374.485 -11.3371 374.138 -12.2021C373.829 -12.969 372.613 -12.8795 371.433 -12.0045C370.252 -11.1295 369.045 -11.0157 368.749 -11.754C368.454 -12.4916 366.989 -11.9455 365.495 -10.542C364.002 -9.1367 362.929 -7.87206 363.11 -7.73069C363.292 -7.58932 366.25 -8.20253 369.683 -9.09198ZM350.941 -20.1154C353.414 -19.7805 357.172 -19.8199 359.293 -20.2028C362.229 -20.7329 361.728 -20.899 357.188 -20.8948C353.91 -20.8917 349.938 -21.0572 348.362 -21.2624C346.786 -21.4667 345.71 -21.4291 345.97 -21.1791C346.231 -20.928 348.467 -20.4493 350.941 -20.1154ZM359.848 -25.4061C365.794 -26.1472 370.874 -26.2097 371.141 -25.5459C371.408 -24.8804 372.05 -24.8816 372.569 -25.5474C373.086 -26.2122 375.428 -27.0652 377.772 -27.4423L382.034 -28.1271L377.686 -27.9996C375.295 -27.9307 372.788 -28.3011 372.116 -28.8248C371.443 -29.3493 370.563 -29.3537 370.159 -28.8357C369.757 -28.3186 368.96 -28.6342 368.39 -29.5404C367.821 -30.4448 366.691 -30.9596 365.881 -30.6832C364.985 -30.3772 365.21 -29.9184 366.458 -29.512C370.177 -28.3015 367.391 -27.2534 357.927 -26.3001C352.793 -25.7842 348.695 -25.0679 348.818 -24.7094C348.94 -24.3517 353.905 -24.6652 359.848 -25.4061ZM387.496 -7.8659C392.333 -10.6573 392.347 -10.6821 388.735 -10.0152C386.202 -9.54745 385.205 -9.84424 385.489 -10.9814C385.716 -11.8843 384.863 -11.1475 383.596 -9.34215C380.488 -4.91828 381.637 -4.48274 387.496 -7.8659ZM366.737 -22.2173C368.239 -22.8389 369.416 -23.6821 369.352 -24.0912C369.289 -24.4995 367.855 -24.1517 366.165 -23.316C362.455 -21.4836 362.9 -20.6278 366.737 -22.2173ZM358.904 -30.1366L362.572 -30.7933L358.809 -30.749C355.274 -30.7072 354.055 -30.3995 354.88 -29.7569C355.076 -29.6043 356.887 -29.7761 358.904 -30.1366ZM507.956 78.1515C509.819 73.1283 510.343 63.6919 508.965 59.9839C508.215 57.9646 505.989 54.8004 504.018 52.953C502.048 51.1047 499.444 47.5169 498.232 44.9783L496.029 40.3622L503.681 45.4278L511.334 50.4923L503.823 44.1815C498.216 39.4705 497.233 38.3053 499.949 39.5835L503.585 41.2962L500.818 38.4677L498.05 35.6401L502.978 37.403C505.905 38.4496 508.808 40.337 510.128 42.0494L512.35 44.934L509.199 43.6617C506.098 42.4099 506.095 42.4309 508.976 45.011C510.587 46.4529 512.293 47.8516 512.768 48.1192C513.244 48.3878 513.291 49.0443 512.874 49.5789C512.458 50.1134 512.841 51.1147 513.725 51.8031C516.194 53.7268 515.856 50.6411 512.955 44.7994C509.976 38.8003 505.844 36.0564 498.156 34.9727C494.55 34.4646 492.769 34.983 491.226 36.9882C489.847 38.7797 489.764 39.4864 490.98 39.0889C492.479 38.5971 492.826 38.867 492.901 40.5853C493.012 43.152 491.183 54.0281 490.491 54.9174C489.414 56.2995 488.766 50.2552 489.483 45.5247C489.899 42.7821 489.894 40.9716 489.474 41.503C487.872 43.519 488.056 59.9189 489.693 61.1936C491.143 62.3229 495.787 53.9845 496.142 49.6141C496.776 41.8468 498.386 45.1952 499.307 56.1936C499.769 61.7098 500.788 67.4851 501.571 69.0275C502.355 70.5718 502.203 68.2593 501.233 63.8905C500.264 59.5208 499.88 55.9081 500.379 55.861C501.778 55.7291 505.453 72.0229 504.126 72.4759C502.942 72.8794 504.473 78.952 506.074 80.1986C506.553 80.5721 507.4 79.6502 507.956 78.1515ZM382.688 -19.8096C383.916 -21.4293 384.105 -22.1477 383.106 -21.406C382.108 -20.6643 381.103 -19.3386 380.873 -18.4605C380.643 -17.5824 381.46 -18.1898 382.688 -19.8096ZM505.054 73.3141C505.744 73.0787 505.414 68.6055 504.321 63.374C503.021 57.1489 502.955 54.3456 504.128 55.2597C507.109 57.581 508.385 61.5236 508.342 68.2707C508.311 73.104 507.828 74.6237 506.38 74.4452C503.867 74.1357 503.519 73.838 505.054 73.3141ZM393.666 -14.5121C394.498 -15.6829 394.433 -16.1036 393.501 -15.5852C392.656 -15.1156 392.04 -14.2478 392.131 -13.6585C392.222 -13.0691 392.912 -13.4531 393.666 -14.5121ZM401.131 -8.86593C404.862 -12.7291 406.297 -14.6943 405.717 -15.1457C404.667 -15.9634 399.429 -10.6522 399.966 -9.31431C400.224 -8.67137 400.749 -8.46876 401.131 -8.86593ZM383.079 -24.3194C383.912 -25.4902 383.847 -25.9109 382.914 -25.3925C382.07 -24.9229 381.453 -24.0551 381.544 -23.4658C381.635 -22.8764 382.326 -23.2604 383.079 -24.3194ZM399.605 -16.0026C400.833 -17.6224 401.022 -18.3408 400.023 -17.5991C399.025 -16.8574 398.02 -15.5317 397.79 -14.6536C397.56 -13.7755 398.376 -14.3829 399.605 -16.0026ZM394.449 -20.0187C395.677 -21.6385 395.866 -22.3569 394.867 -21.6152C393.869 -20.8735 392.864 -19.5477 392.634 -18.6697C392.404 -17.7916 393.22 -18.3989 394.449 -20.0187ZM493.153 48.6633C493.816 44.6692 494.562 41.5623 494.813 41.7574C495.82 42.5422 494.975 50.7643 493.549 54.0435C491.677 58.3525 491.637 57.8025 493.153 48.6633ZM427.755 2.75185C429.751 2.13224 431.447 2.04331 431.526 2.55633C431.658 3.41018 425.384 4.85761 424.509 4.17569C424.301 4.01343 425.761 3.37227 427.755 2.75185ZM389.056 -24.5878C389.643 -24.6424 391.021 -25.8395 392.118 -27.2479C393.215 -28.6553 395.18 -29.9834 396.487 -30.1977C397.793 -30.4127 396.904 -30.5369 394.509 -30.4749C392.115 -30.4129 390.078 -30.8627 389.983 -31.4769C389.804 -32.6361 384.668 -32.573 383.755 -31.4008C383.468 -31.0324 384.341 -30.2368 385.694 -29.6331C387.047 -29.0287 387.652 -28.3627 387.036 -28.1534C385.691 -27.6941 387.532 -24.4441 389.056 -24.5878ZM376.419 -34.3475C375.894 -35.2075 374.977 -35.8658 374.384 -35.8098C373.79 -35.7538 374.22 -35.0504 375.339 -34.2457C376.577 -33.3566 377.001 -33.3965 376.419 -34.3475ZM371.483 -38.8202C368.948 -42.9683 371.244 -42.5042 377.403 -37.621L382.79 -33.3521L378.715 -37.6782C376.033 -40.5265 373.251 -42.4072 370.577 -43.1832L366.513 -44.3622L368.6 -41.0544C369.748 -39.2346 371.259 -37.3457 371.957 -36.855C372.656 -36.3653 372.442 -37.2502 371.483 -38.8202ZM481.977 42.3003C482.873 41.0667 483.89 38.8717 484.235 37.4227L484.863 34.7888L483.204 36.6194L481.545 38.4501L482.173 35.8162C483.053 32.1248 483.779 31.2458 484.491 33.0166C484.826 33.8522 485.417 32.5762 485.803 30.1814C486.189 27.7856 487.115 25.6172 487.858 25.3642C488.603 25.1103 488.72 24.5192 488.12 24.0517C487.52 23.5843 487.284 22.8745 487.598 22.4739C487.912 22.0732 492.444 23.7762 497.669 26.2549C509.037 31.6489 511.773 32.2497 510.604 29.0948C510.163 27.9064 508.856 26.2341 507.698 25.3807C505.642 23.8619 505.626 23.8795 507.024 26.1304C508.349 28.2648 508.232 28.3361 505.437 27.105C503.777 26.3746 501.249 24.8861 499.819 23.7972C497.72 22.1987 497.367 22.2409 497.992 24.0145C498.547 25.5912 497.775 25.1426 495.26 22.428C492.744 19.7109 491.717 19.1144 491.619 20.315C491.544 21.2343 491.019 21.6251 490.452 21.1833C487.713 19.05 490.22 17.6797 495.064 18.6617C498.041 19.266 500.003 19.361 499.424 18.8708C498.844 18.3816 495.084 17.5747 491.068 17.0783C485.618 16.4048 483.845 16.6865 484.077 18.1918C484.248 19.3013 483.382 21.5686 482.152 23.229C480.231 25.8245 480.256 26.0751 482.328 25.0061C484.675 23.7968 484.714 23.8365 483.739 26.4779C483.188 27.9715 483.223 29.2587 483.816 29.3396C484.41 29.4195 483.894 30.7713 482.67 32.3429C480.764 34.7893 480.349 34.8483 479.787 32.7617C479.425 31.4198 479.062 33.2416 478.98 36.81C478.812 44.1253 479.6 45.5693 481.977 42.3003ZM427.15 -0.986617C429.217 -1.63009 430.167 -2.25648 429.261 -2.37813C427.531 -2.61204 422.212 -0.736841 422.958 -0.155315C423.196 0.0302295 425.082 -0.343948 427.15 -0.986617ZM445.129 0.416516C445.883 -0.552511 447.662 5.38612 448.348 11.1738C449.109 17.5929 449.1 17.5801 446.978 9.20926C445.804 4.57619 444.97 0.619646 445.129 0.416516ZM442.882 7.55526C442.919 5.00778 442.718 2.74305 442.435 2.52216C442.151 2.30128 441.888 4.20456 441.851 6.75204C441.813 9.29952 442.014 11.5642 442.298 11.7851C442.581 12.006 442.845 10.1027 442.882 7.55526ZM405.417 -24.6881C408.295 -29.2785 409.415 -30.1487 413.028 -30.603C418.974 -31.3531 419.763 -30.1516 415.745 -26.4649C412.768 -23.7346 412.699 -23.5165 415.245 -24.8805C416.869 -25.7497 418.568 -27.3608 419.021 -28.4589C419.572 -29.7932 420.185 -29.915 420.871 -28.8244C421.436 -27.9267 421.406 -26.4235 420.802 -25.4822C420.198 -24.541 421.337 -25.287 423.334 -27.1377C426.128 -29.7301 428.179 -30.3864 432.243 -29.991C436.299 -29.5957 437.493 -29.0391 437.393 -27.5943C437.3 -26.2645 437.736 -26.2606 438.874 -27.5792C439.759 -28.6074 440.294 -28.7191 440.059 -27.8279C439.401 -25.3263 441.351 -24.5134 442.984 -26.6099C444.099 -28.0426 446.041 -27.8205 451.206 -25.6711C454.925 -24.1238 458.221 -22.6607 458.529 -22.4205C458.837 -22.1804 457.472 -19.5554 455.494 -16.5861L451.898 -11.1886L455.958 -16.0077C459.894 -20.6808 460.097 -20.7495 462.595 -18.2854C465.109 -15.8058 465.123 -15.8106 463.177 -18.5005C461.5 -20.8197 461.683 -22.1013 464.326 -26.5561L467.47 -31.8532L463.892 -27.5939L460.314 -23.3336L452.319 -26.6955C447.847 -28.5762 443.48 -31.1719 442.408 -32.5845C440.926 -34.5402 440.663 -34.609 441.245 -32.8863C441.857 -31.0745 441.513 -31.0286 439.395 -32.6388C437.272 -34.2539 436.93 -34.2073 437.538 -32.3817C438.017 -30.9401 437.754 -30.3021 436.799 -30.5856C435.983 -30.8275 432.993 -31.1513 430.153 -31.3048C427.313 -31.4592 424.553 -32.2785 424.019 -33.125C423.476 -33.9869 422.058 -34.0107 420.801 -33.1798C419.295 -32.184 417.625 -32.3821 415.735 -33.7807C413.493 -35.4395 413.188 -35.426 414.245 -33.7139C415.514 -31.6589 415.422 -31.5529 412.222 -31.4104C410.379 -31.3283 407.87 -31.9318 406.647 -32.753C405.425 -33.5724 404.381 -33.7198 404.329 -33.0799C404.278 -32.4403 403.047 -32.8418 401.596 -33.972C400.145 -35.1021 398.579 -35.5424 398.118 -34.9505C397.586 -34.2672 398.475 -33.3245 400.545 -32.3762C403.556 -30.9971 403.59 -30.8319 400.988 -30.2496C398.667 -29.7307 398.876 -29.6207 402.155 -29.632C405.761 -29.6454 405.95 -29.5282 404.104 -28.4238C402.883 -27.6926 402.657 -27.121 403.542 -27.0011C404.358 -26.8907 404.416 -26.0038 403.671 -25.0303C402.927 -24.056 402.255 -22.3698 402.179 -21.2821C402.099 -20.1317 403.452 -21.5544 405.417 -24.6881ZM413.611 -14.5929C414.443 -15.7638 414.378 -16.1844 413.446 -15.666C412.601 -15.1964 411.985 -14.3288 412.076 -13.7394C412.167 -13.1501 412.857 -13.5339 413.611 -14.5929ZM400.205 -25.0347C401.037 -26.2055 400.972 -26.6262 400.04 -26.1078C399.195 -25.6382 398.579 -24.7705 398.67 -24.1812C398.761 -23.5918 399.451 -23.9757 400.205 -25.0347ZM380.204 -39.2073C379.68 -40.0673 378.762 -40.7255 378.169 -40.6695C377.575 -40.6135 378.005 -39.9101 379.124 -39.1054C380.362 -38.2163 380.786 -38.2563 380.204 -39.2073ZM421.325 -10.3535C422.674 -10.8347 424.316 -12.5664 424.973 -14.2016L426.169 -17.1745L423.392 -15.1664C421.864 -14.0623 420.222 -12.3305 419.742 -11.319C418.975 -9.69773 419.162 -9.58307 421.325 -10.3535ZM472.921 22.1639C477.716 16.0031 478.498 5.18256 473.904 8.56706C472.857 9.33849 473.016 9.44056 474.585 9.00434C477.87 8.09288 476.391 13.7139 472.285 17.7474C469.863 20.1273 468.982 21.8971 469.396 23.5501C469.904 25.5806 470.423 25.3758 472.921 22.1639ZM418.427 -18.6494C419.259 -19.8202 419.194 -20.2409 418.262 -19.7225C417.417 -19.2529 416.801 -18.3852 416.892 -17.7959C416.983 -17.2065 417.673 -17.5904 418.427 -18.6494ZM393.587 -36.5779C388.03 -42.0618 386.925 -43.8433 388.515 -44.7587C389.665 -45.4211 389.282 -46.0837 387.077 -47.2417C385.423 -48.1104 383.784 -48.4546 383.435 -48.0075C382.524 -46.8373 388.317 -39.6081 392.678 -36.4751C396.188 -33.9553 396.239 -33.9609 393.587 -36.5779ZM395.37 -38.3356C394.569 -39.3532 392.943 -40.6191 391.761 -41.1468C390.578 -41.6755 391.234 -40.8432 393.219 -39.297C395.204 -37.7509 396.172 -37.3189 395.37 -38.3356ZM465.308 7.45465C466.281 5.42042 467.229 1.25528 467.416 -1.80163C467.845 -8.84627 468.194 -9.22411 471.016 -5.71096C474.37 -1.53563 474.62 0.810021 472.091 4.34003L469.846 7.47578L472.904 5.17282C474.586 3.90646 475.649 3.38657 475.265 4.01805C474.881 4.64954 475.994 6.27884 477.74 7.63869C480.117 9.49009 480.673 9.57632 479.955 7.98527C478.48 4.7142 479.947 3.98417 483.994 5.97786C486.017 6.9739 487.608 7.37311 487.529 6.86541C487.45 6.35692 485.621 5.30844 483.463 4.53499C481.306 3.76056 479.582 2.62374 479.631 2.0067C479.682 1.38868 482.485 2.13369 485.86 3.66034C489.236 5.18701 491.938 6.04247 491.863 5.56237C491.789 5.08131 489.634 3.89957 487.073 2.93543C481.009 0.651186 480.742 -1.27242 486.723 0.404673C489.265 1.11844 490.618 1.10698 489.727 0.378768C488.835 -0.348464 485.26 -1.12328 481.783 -1.3409C475.898 -1.7104 475.22 -2.04456 472.02 -6.14429C468.104 -11.1635 468.286 -12.4927 472.62 -10.5081C476.615 -8.67875 485.918 -7.28088 486.775 -8.3821C487.15 -8.86321 485.693 -10.5825 483.537 -12.2018C480.607 -14.4017 479.979 -14.563 481.05 -12.8387C482.301 -10.8243 481.934 -10.7286 478.146 -12.0866C472.498 -14.1121 471.92 -14.6979 475.732 -14.537C477.444 -14.4635 478.452 -14.7107 477.972 -15.0842C476.276 -16.4055 466.324 -16.16 465.242 -14.7701C464.078 -13.2762 464.824 -5.58053 466.18 -5.07366C466.622 -4.90912 466.145 -3.69888 465.122 -2.38482C462.695 0.731233 462.396 0.342495 462.76 -5.4606C462.927 -8.12292 462.718 -9.26663 462.295 -8.00473C461.304 -5.05034 461.637 9.51734 462.716 10.4439C463.169 10.8343 464.335 9.48887 465.308 7.45465ZM401.786 -38.0648C400.4 -39.5018 397.847 -41.4906 396.115 -42.4824C394.382 -43.4743 395.516 -42.299 398.635 -39.8693C401.755 -37.4396 403.172 -36.6277 401.786 -38.0648ZM473.473 15.0779C474.073 14.3071 474.334 13.1047 474.053 12.4045C473.773 11.7042 473.103 12.196 472.567 13.4974C471.429 16.2577 471.906 17.0898 473.473 15.0779ZM470.443 11.3871C470.802 10.1268 470.645 9.13838 470.094 9.19035C469.544 9.24135 469.25 10.2723 469.441 11.4817C469.718 13.2278 469.923 13.2075 470.443 11.3871ZM462.53 2.42259C462.602 1.54498 463.487 0.822205 464.497 0.818756C465.507 0.813526 465.882 0.926627 465.33 1.06967C464.78 1.21256 464.389 2.31931 464.461 3.52816C464.552 5.02971 464.246 5.45658 463.497 4.87265C462.894 4.40357 462.459 3.301 462.53 2.42259ZM408.583 -39.5698C407.487 -41.3673 407.489 -42.7335 408.591 -43.3679C409.915 -44.1295 409.485 -45.0047 406.737 -47.1453C404.769 -48.6778 402.996 -49.7217 402.796 -49.4651C402.221 -48.7265 407.395 -38.8137 408.919 -37.7356C409.678 -37.1993 409.526 -38.0252 408.583 -39.5698ZM437.575 -20.0022C438.616 -21.3386 438.808 -22.0681 438.002 -21.6219C437.195 -21.1775 436.343 -20.084 436.109 -19.1921C435.875 -18.3018 436.534 -18.6658 437.575 -20.0022ZM418.147 -34.607C417.648 -35.4298 416.488 -36.3334 415.569 -36.615C414.649 -36.8984 415.058 -36.2256 416.476 -35.1212C417.894 -34.0168 418.645 -33.786 418.147 -34.607ZM412.991 -38.6231C412.492 -39.4459 411.331 -40.3495 410.412 -40.6311C409.493 -40.9145 409.902 -40.2417 411.32 -39.1373C412.738 -38.0328 413.489 -37.802 412.991 -38.6231ZM483.207 13.7848C483.024 12.5747 482.425 11.6281 481.875 11.6808C481.324 11.7328 481.473 12.7219 482.205 13.8793C483.265 15.5507 483.469 15.5323 483.207 13.7848ZM434.73 -24.6902C435.563 -25.8611 435.498 -26.2818 434.565 -25.7634C433.721 -25.2937 433.104 -24.426 433.195 -23.8367C433.286 -23.2473 433.976 -23.6313 434.73 -24.6902ZM419.42 -38.3688C418.323 -39.5945 416.236 -41.2202 414.779 -41.9833C413.322 -42.7454 414.219 -41.7422 416.771 -39.7542C419.323 -37.7663 420.516 -37.1422 419.42 -38.3688ZM427.673 -40.9882L426.177 -44.3852L428.585 -42.5656C429.918 -41.5575 431.046 -41.4001 431.113 -42.2132C431.253 -43.9374 425.444 -48.7618 424.573 -47.6441C423.907 -46.7888 426.875 -39.2361 428.27 -38.2358C428.764 -37.8817 428.496 -39.1198 427.673 -40.9882ZM495.651 10.0037C502.504 11.5489 502.973 9.90267 497.078 4.98016C492.631 1.2664 492.376 1.18059 494.846 4.23172C498.811 9.13107 498.553 9.85326 493.359 8.40632C490.839 7.7049 489.213 7.52692 489.747 8.01145C490.28 8.49598 492.937 9.39257 495.651 10.0037ZM434.998 -37.0976C434.499 -37.9204 433.339 -38.824 432.42 -39.1056C431.501 -39.389 431.91 -38.7161 433.328 -37.6117C434.745 -36.5073 435.497 -36.2765 434.998 -37.0976ZM438.079 -37.8628C437.278 -38.8805 435.653 -40.1463 434.47 -40.6741C433.288 -41.2028 433.944 -40.3705 435.929 -38.8243C437.914 -37.2781 438.881 -36.8462 438.079 -37.8628ZM469.673 -15.0847C470.274 -15.1404 472.238 -14.1478 474.038 -12.8778C475.932 -11.5418 476.531 -10.6744 475.459 -10.8191C473.266 -11.1156 468.085 -14.9348 469.673 -15.0847ZM473.336 -36.0447C481.679 -46.2847 485.427 -49.2137 487.989 -47.495C489.656 -46.3763 489.733 -46.0179 488.266 -46.2155C486.764 -46.4186 486.904 -44.9073 488.799 -40.4782C492.4 -32.0659 500.544 -17.5445 501.959 -17.0171C503.901 -16.2917 502.208 -35.4731 499.902 -40.3254C498.725 -42.8006 495.771 -46.4058 493.335 -48.339L488.907 -51.8537L496.588 -60.3156C500.812 -64.9691 505.09 -69.3684 506.094 -70.0889C507.097 -70.8103 507.473 -71.7472 506.93 -72.1705C506.386 -72.5938 501.847 -68.3744 496.843 -62.7918L487.745 -52.6446L482.497 -53.7821C474.281 -55.5643 452.402 -52.1941 452.861 -49.219C452.956 -48.603 457.316 -47.153 462.548 -45.9961C469.508 -44.4573 473.144 -44.4023 476.09 -45.7942C478.305 -46.8407 480.38 -47.5093 480.699 -47.2792C481.02 -47.05 478.938 -44.2385 476.073 -41.0308C473.208 -37.8248 470.438 -34.1856 469.916 -32.9431C469.396 -31.7009 470.934 -33.0977 473.336 -36.0447ZM468.777 -48.0831C473.452 -48.2676 476.818 -48.7769 476.256 -49.2147C475.695 -49.6516 471.211 -49.8976 466.293 -49.7614C461.375 -49.6242 457.297 -49.8618 457.232 -50.2888C457.166 -50.7148 461.42 -51.7222 466.684 -52.5269C479.197 -54.4378 490.503 -52.3609 481.36 -49.8314C479.377 -49.2823 477.252 -48.2074 476.638 -47.4426C475.59 -46.1352 462.363 -45.9002 460.935 -47.164C460.572 -47.4837 464.101 -47.8977 468.777 -48.0831ZM496.702 -29.4631C495.07 -29.6837 488.683 -41.5839 488.883 -44.0342C489.1 -46.6967 490.726 -44.298 493.438 -37.3138C494.896 -33.5575 496.461 -30.5192 496.917 -30.5623C497.691 -30.6353 495.064 -37.27 490.665 -46.3473L488.759 -50.2819L492.725 -47.2557C497.671 -43.4811 499.164 -40.5007 500.789 -31.1599C502.209 -22.9956 501.567 -20.2318 499.526 -25.7223C498.803 -27.6676 497.532 -29.3506 496.702 -29.4631Z" fill="#1ABC00" fill-opacity="0.43"/>
<path fill-rule="evenodd" clip-rule="evenodd" d="M129.593 883.609C125.533 884.924 121.717 886.603 121.116 887.338C120.513 888.074 123.115 887.424 126.898 885.893C130.68 884.362 133.572 883.671 133.325 884.357C133.078 885.043 131.105 886.318 128.942 887.19C124.292 889.062 123.459 889.839 125.711 890.199C126.825 890.376 126.6 890.944 125.025 891.931C123.737 892.738 122.924 893.595 123.219 893.836C123.811 894.321 129.627 890.381 135.19 885.725C140.207 881.527 138.274 880.796 129.593 883.609ZM114.428 879.411C112.791 880.171 108.717 882.956 105.373 885.6C100.107 889.764 99.0408 891.165 97.4096 896.063C95.6157 901.448 95.305 901.793 90.9146 903.274C84.876 905.312 83.5539 902.877 87.2169 896.463C88.8044 893.682 89.3414 891.994 88.4087 892.714C87.4768 893.434 85.8682 896.018 84.8338 898.455C82.8353 903.171 80.9292 904.451 81.2728 900.847C81.3863 899.652 81.1492 899.064 80.7452 899.539C80.3415 900.016 80.1098 901.653 80.2298 903.177C80.4258 905.643 79.8149 906.105 74.6968 907.357C70.1868 908.46 69.2192 908.34 70.2198 906.798C70.923 905.716 73.9281 901.27 76.9 896.915C79.8718 892.561 81.9316 888.695 81.4775 888.323C78.5717 885.945 66.348 898.588 65.1055 905.256C64.3939 909.082 64.0513 909.403 59.6231 910.405L54.9008 911.475L59.5448 903.968C64.2849 896.308 64.5429 893.934 60.3171 896.873C56.6793 899.404 54.266 902.725 52.7611 907.273C51.5464 910.942 50.8667 911.535 46.848 912.432C40.6353 913.818 39.9065 915.198 45.9984 914.038C50.5278 913.174 51.2898 913.459 56.0157 917.771C60.4163 921.784 60.7245 921.923 58.2246 918.764L55.3184 915.092L58.5478 917.337L61.7771 919.583L59.3383 916.372C57.1142 913.443 57.3071 913.48 61.5313 916.788C64.7583 919.315 65.4909 920.315 63.9477 920.085C62.0503 919.8 61.9088 920.048 62.9589 921.808C64.3674 924.172 67.7793 925.664 68.8313 924.379C69.7709 923.231 66.8747 919.406 62.0685 915.445C57.0204 911.283 59.4352 909.479 64.9399 913.299C67.1164 914.809 69.2019 915.672 69.5734 915.218C69.9456 914.764 70.9693 914.675 71.8475 915.02C72.7268 915.366 72.2652 914.958 70.8231 914.113C66.2312 911.427 66.9693 909.84 73.372 908.637C77.7897 907.805 80.3613 908.101 82.2886 909.662C83.7783 910.867 86.0486 911.963 87.3341 912.095C89.1364 912.281 88.982 911.997 86.6598 910.855L83.6481 909.375L87.2106 909.421C89.1711 909.446 92.0835 909.603 93.6826 909.769C95.2834 909.935 94.1377 909.535 91.1371 908.879C88.1365 908.224 85.5152 907.55 85.3109 907.383C84.6737 906.862 93.0454 903.505 96.0801 903.064C97.6704 902.834 100.395 903.782 102.133 905.171L105.294 907.696L103.171 903.769C102.003 901.609 101.472 898.874 101.991 897.691C102.797 895.851 102.545 895.785 100.243 897.231C97.7373 898.805 97.6018 898.75 98.2988 896.436C99.5614 892.244 103.283 888.314 108.844 885.305L114.151 882.432L109.268 889.58L104.386 896.728L111.346 888.589C118.535 880.185 119.601 877.011 114.428 879.411ZM90.5457 867.486C82.3452 868.414 72.1273 872.691 66.2162 877.67C61.1532 881.934 60.2094 882.337 60.4672 880.122C62.302 864.415 63.0186 849.46 61.9345 849.536C61.1927 849.588 61.3488 849.201 62.2817 848.678C64.0276 847.697 65.058 843.325 63.517 843.433C62.4581 843.507 55.6979 856.746 54.0918 861.893C52.0397 868.467 52.6863 880.529 55.3016 884.494L57.769 888.232L50.1774 898.232L42.5865 908.23L51.6663 897.172C59.8703 887.182 61.2134 886.001 65.5808 884.942C68.2393 884.299 74.8378 881.412 80.2425 878.528C96.1798 870.024 99.4928 866.474 90.5457 867.486ZM32.8931 822.677C32.0856 824.425 30.5527 826.931 29.4858 828.246C27.7561 830.378 27.7994 830.502 29.8821 829.392C31.9055 828.314 31.995 828.759 30.5572 832.709C29.6432 835.218 29.1538 837.962 29.4674 838.805C29.7828 839.647 30.1069 839.707 30.1887 838.937C30.4655 836.331 34.3031 824.229 34.7401 824.587C34.9788 824.782 34.8897 827.755 34.5436 831.193C34.1975 834.63 34.2561 836.525 34.6744 835.401C36.0586 831.686 36.612 821.343 35.4761 820.413C34.7671 819.833 33.823 820.66 32.8931 822.677ZM115.519 892.309C113.451 894.713 109.944 897.142 107.328 897.981C100.985 900.018 101.096 900.291 108.545 900.939C114.866 901.49 119.402 903.384 116.549 904.28C115.737 904.534 116.051 905.03 117.305 905.472C118.901 906.035 119.281 905.779 118.795 904.475C118.404 903.431 119.201 903.69 120.762 905.113L123.384 907.505L119.471 907.485C117.319 907.475 113.387 907.348 110.735 907.204C108.082 907.059 106.997 907.225 108.326 907.571C111.49 908.396 128.62 908.894 129.31 908.18C130.112 907.351 114.037 900.055 111.758 900.215C107.863 900.487 108.113 898.894 112.124 897.888C119.684 895.993 121.833 894.824 120.208 893.494C119.404 892.835 118.319 892.724 117.798 893.247C117.278 893.77 117.366 892.826 117.994 891.151C118.944 888.617 118.528 888.811 115.519 892.309ZM88.8619 871.198C89.6133 871.318 90.112 871.559 89.9692 871.733C89.046 872.861 70.9781 882.037 68.0279 882.877C63.3685 884.203 61.8191 882.948 65.5744 880.891C67.1713 880.016 68.7327 878.469 69.046 877.455C69.3592 876.441 73.8685 873.931 79.0663 871.878C84.2648 869.824 88.2883 868.783 88.0069 869.562C87.7258 870.343 88.1104 871.078 88.8619 871.198ZM98.2607 877.552C95.6923 877.732 92.542 883.109 92.9886 886.552C93.4409 890.04 93.4535 890.039 95.3143 886.466C98.8099 879.757 99.5688 877.46 98.2607 877.552ZM78.376 873.924C73.8114 875.868 69.8435 877.791 69.5571 878.197C69.2707 878.602 73.0422 877.305 77.9397 875.314C82.8363 873.323 86.8043 871.4 86.7587 871.041C86.7112 870.682 82.9396 871.979 78.376 873.924ZM60.7517 864.589C60.0562 871.683 59.1744 879.021 58.7911 880.896L58.0933 884.305L57.4591 879.806C57.1101 877.331 57.2934 871.432 57.8646 866.698C58.4377 861.964 58.4302 858.672 57.8495 859.381C56.6025 860.904 55.3114 873.779 56.0674 877.148C56.3572 878.434 56.2304 879.93 55.7879 880.471C54.5291 882.008 53.5892 874.915 54.1933 868.441C54.4935 865.22 55.8721 860.975 57.2578 859.008C58.6428 857.042 60.0628 854.412 60.413 853.167C61.8244 848.15 61.9493 852.361 60.7517 864.589ZM41.8812 844.022C36.6466 844.731 35.4992 845.448 31.6717 850.392L27.3603 855.961L32.4474 851.012C35.5179 848.025 38.7859 845.975 40.6924 845.842C43.7081 845.631 43.7035 845.75 40.5819 848.496C38.2164 850.577 37.9918 851.047 39.7684 850.198L42.2233 849.023L41.1874 851.359C40.6182 852.645 42.0474 851.487 44.366 848.787C46.6845 846.087 48.4004 843.731 48.1799 843.55C47.9594 843.37 45.1248 843.582 41.8812 844.022ZM86.1545 888.968C83.7584 891.823 81.7176 895.019 81.6189 896.07C81.5186 897.138 83.2531 895.393 85.5443 892.119C91.1414 884.125 91.4174 882.698 86.1545 888.968ZM110.434 903.359C107.383 903.24 107.381 903.267 110.383 904.058C112.104 904.512 113.674 904.682 113.873 904.439C114.47 903.71 113.772 903.491 110.434 903.359ZM30.2331 843.098C27.6521 844.862 27.6394 844.855 26.8246 841.138C26.374 839.086 26.2121 840.068 26.4649 843.321C26.9689 849.814 25.65 858.542 24.3291 857.46C23.8699 857.084 23.3863 855.948 23.255 854.936C23.0908 853.67 22.6431 853.55 21.819 854.557C21.1611 855.36 21.2295 856.515 21.9719 857.123C24.2182 858.962 22.0481 860.108 19.244 858.563C17.803 857.768 18.3864 858.37 20.5402 859.899C23.619 862.085 24.5644 863.687 24.9644 867.392C25.6149 873.425 24.4804 874.722 20.6044 872.377C18.1057 870.865 18.2173 871.133 21.1741 873.745C26.3212 878.293 24.259 879.693 18.8883 875.296C13.7594 871.098 9.5206 865.042 9.03932 861.226C8.73894 858.841 8.83875 858.76 9.94456 860.49C10.6276 861.56 12.729 864.1 14.6139 866.135L18.0407 869.834L15.1347 865.46C13.5355 863.055 12.8347 861.047 13.5788 860.999C14.3219 860.95 13.2448 859.531 11.1845 857.845C7.81847 855.089 7.39453 855.048 6.98572 857.437C6.73581 858.898 7.84291 862.764 9.44682 866.028C11.8404 870.898 13.5825 872.814 19.1762 876.728C25.612 881.231 26.0197 881.775 26.5336 886.524L27.0763 891.553L19.4193 885.56L11.7632 879.566L17.8621 885.528C22.0219 889.594 23.0127 891.009 20.9776 889.977C18.5014 888.722 18.5625 888.886 21.3314 890.948C24.9395 893.632 23.9806 894.771 19.4002 893.241C17.4109 892.575 17.0296 892.709 18.1353 893.686C19.0069 894.453 21.7084 895.179 24.1382 895.296C28.5548 895.508 28.5568 895.509 29.0182 899.067C29.4795 902.624 29.4777 902.624 24.6913 899.777C22.0573 898.212 19.9544 897.332 20.0182 897.824C20.0809 898.315 22.3396 899.858 25.0373 901.253C29.5967 903.611 30.8526 905.955 26.9643 904.846C26.0228 904.579 26.4715 904.957 27.9632 905.689C29.455 906.422 30.4832 907.254 30.2491 907.54C29.2361 908.777 21.9592 906.816 16.842 903.928L11.2818 900.788L16.3697 904.412C19.6087 906.718 23.6732 908.321 27.5505 908.822C36.3466 909.957 38.8065 913.498 34.6146 918.992L31.5166 923.05L36.1256 918.863C40.9455 914.482 43.1131 911.05 41.7588 909.941C41.3198 909.582 40.456 910.428 39.8405 911.824C38.9367 913.875 38.4852 913.963 37.4815 912.281C36.7997 911.137 35.9388 909.95 35.5682 909.643C35.1985 909.337 37.8521 905.386 41.4638 900.863C49.0159 891.409 49.8452 887.299 43.3446 891.539C41.039 893.043 37.9352 896.143 36.4469 898.428C34.1005 902.029 34.3357 901.904 38.2183 897.49C43.7783 891.169 44.1968 894.549 38.6935 901.321C35.252 905.554 34.9499 905.657 32.6682 903.357C31.3474 902.026 30.0541 899.31 29.797 897.321C29.3566 893.932 29.5436 893.652 32.7814 892.84C34.6814 892.364 36.9057 891.07 37.7271 889.966C38.6637 888.704 37.7997 888.866 35.3983 890.405C29.9894 893.869 32.0874 890.033 39.5464 882.824C43.8363 878.678 45.2341 877.829 44.6884 879.7L43.9398 882.272L45.4713 880.341C46.3135 879.279 47.5557 877.097 48.2309 875.493C49.4438 872.612 49.3929 872.596 44.1733 874.236C39.6538 875.657 38.161 876.902 33.8597 882.85C31.0941 886.676 28.5542 889.578 28.2153 889.301C27.8765 889.023 27.4126 886.883 27.1834 884.544C26.8699 881.353 27.4642 879.752 29.5622 878.133C37.8746 871.718 37.535 872.034 34.8407 873.23L32.319 874.35L33.6886 872.287C34.6636 870.82 34.16 870.868 31.9454 872.452C29.5133 874.193 29.926 873.291 33.8308 868.329C37.0899 864.189 39.8595 861.747 41.7902 861.312C45.308 860.519 45.0931 861.999 40.7429 868.509C38.7184 871.539 39.269 871.149 42.8296 867.033C49.1282 859.75 49.4993 856.944 43.9568 858.521C41.0885 859.338 37.9123 861.845 33.3512 866.897L26.8416 874.108L26.0725 869.028C25.6486 866.234 25.9064 863.342 26.6455 862.6C27.3839 861.859 28.7695 860.191 29.7234 858.896C31.1423 856.969 31.0257 856.529 29.0863 856.486C26.0889 856.419 26.5895 851.928 30.2952 845.627C32.5172 841.848 32.5102 841.543 30.2331 843.098ZM90.9236 893.668C89.6562 895.258 89.4503 895.971 90.4666 895.254C91.4828 894.537 92.5192 893.236 92.7704 892.364C93.0216 891.491 92.191 892.079 90.9236 893.668ZM12.9185 833.79C12.4893 834.314 12.5791 835.104 13.1182 835.545C13.6562 835.986 13.393 836.73 12.5316 837.198C11.6702 837.667 11.3056 839.303 11.7186 840.835C12.3625 843.214 12.4481 843.274 12.3021 841.249C11.9775 836.732 13.3413 837.433 15.0489 842.66C15.9919 845.546 17.663 848.226 18.7611 848.614C20.2796 849.149 20.602 848.895 20.103 847.557C19.7405 846.588 18.5564 845.482 17.4726 845.1C16.2704 844.676 16.0884 844.22 17.0056 843.931C17.8447 843.667 17.6432 841.264 16.5534 838.513C14.325 832.889 14.0009 832.467 12.9185 833.79ZM33.7688 854.043C32.6958 855.354 32.486 856.078 33.3031 855.652C34.1204 855.227 34.9983 854.155 35.2541 853.269C35.5101 852.384 34.8419 852.732 33.7688 854.043ZM87.6053 899.709C86.5323 901.019 86.3225 901.744 87.1396 901.318C87.9569 900.893 88.8349 899.82 89.0906 898.934C89.3466 898.05 88.6784 898.398 87.6053 899.709ZM98.405 907.907C95.568 906.859 92.3963 906.091 91.3563 906.199C90.1532 906.326 90.6503 906.68 92.7222 907.174C94.5143 907.602 96.3742 908.58 96.8554 909.348C97.3365 910.116 99.5285 911.187 101.727 911.729C107.984 913.271 106.629 914.579 99.7023 913.684C96.2636 913.24 93.3019 913.059 93.12 913.281C92.6253 913.885 100.226 915.094 105.825 915.301L110.744 915.483L107.153 912.647C105.178 911.087 101.241 908.955 98.405 907.907ZM39.8249 865.369C38.3226 867.205 37.9168 868.125 38.9214 867.416C39.927 866.708 41.1569 865.205 41.6528 864.08C42.1497 862.955 41.3272 863.534 39.8249 865.369ZM75.4958 894.572C74.8295 894.781 74.5272 895.6 74.8226 896.393C75.4207 897.994 71.194 903.652 68.1708 905.296C64.7237 907.171 66.2249 902.867 71.1134 896.861C73.9793 893.341 75.8283 891.838 76.1691 892.75C76.4644 893.543 76.1621 894.362 75.4958 894.572ZM11.244 844.982C11.0646 846.673 13.145 852.084 13.71 851.394C13.8903 851.174 13.4476 849.28 12.7264 847.183C12.0044 845.087 11.3371 844.097 11.244 844.982ZM18.4455 851.249C18.5985 852.463 19.1751 853.424 19.726 853.385C20.2779 853.346 20.1528 852.354 19.4489 851.179C18.4306 849.482 18.2254 849.496 18.4455 851.249ZM71.4934 898.592C70.6328 899.742 70.6875 900.164 71.6322 899.669C72.4879 899.22 73.125 898.367 73.0483 897.776C72.9716 897.184 72.2725 897.552 71.4934 898.592ZM37.0537 883.003L32.9854 886.041L36.136 881.984C37.8698 879.753 40.2682 877.417 41.4667 876.795C43.5071 875.735 43.566 875.799 42.3845 877.814C41.6899 878.997 39.2915 881.332 37.0537 883.003ZM41.9385 885.41C40.671 886.999 40.4652 887.713 41.4814 886.995C42.4977 886.278 43.534 884.977 43.7853 884.105C44.0365 883.233 43.2059 883.82 41.9385 885.41ZM18.1465 866.224C18.6502 867.096 19.5512 867.776 20.1461 867.735C20.741 867.693 20.3284 866.98 19.2288 866.148C18.013 865.229 17.5883 865.259 18.1465 866.224ZM76.9686 914.439C78.1666 915.813 79.2521 917.638 79.3806 918.496C79.5127 919.375 78.7162 918.998 77.5552 917.631C75.7443 915.497 75.657 915.507 76.8227 917.712C78.0298 919.993 85.1794 922.981 86.2642 921.656C86.4679 921.407 83.9699 919.12 80.7123 916.572C77.4546 914.025 75.7707 913.065 76.9686 914.439ZM109.028 945.391C101.88 946.362 95.8733 949.128 92.7993 952.869C91.5944 954.334 88.4151 955.841 85.6775 956.244C82.4024 956.727 81.4359 956.531 82.8165 955.668C83.9639 954.951 85.3251 953.2 85.841 951.775C86.7459 949.279 86.6834 949.25 84.0966 950.97C81.9977 952.366 82.1721 951.814 84.8959 948.44C86.9382 945.91 88.1047 945.048 87.7165 946.356C87.163 948.223 87.6481 948.303 90.6889 946.85C92.6878 945.896 95.1466 943.796 96.1533 942.183C97.9328 939.335 97.8192 939.316 92.116 941.549C86.9917 943.556 85.6298 944.758 81.3618 951.031C76.7462 957.817 76.2037 958.242 71.606 958.662L66.7367 959.107L67.2333 955.903C67.649 953.218 67.4941 952.972 66.2815 954.391C65.4858 955.324 64.5962 955.449 64.3052 954.669C63.6358 952.875 62.9238 953.728 62.3639 956.995C62.0383 958.897 60.935 959.737 58.0301 960.294C55.8865 960.704 54.1839 961.441 54.2472 961.929C54.4782 963.71 50.9326 959.527 49.6803 956.542C48.2416 953.11 47.6804 953.3 46.9688 957.46C46.5634 959.827 45.6318 960.381 41.4113 960.768C34.9641 961.357 34.4862 960.893 37.8051 957.256C39.4808 955.419 39.6228 955.023 38.1809 956.215C35.4354 958.481 31.2972 959.015 30.9582 957.146C30.8265 956.424 30.3629 956.906 29.9273 958.218C29.3957 959.821 27.8026 960.739 25.0783 961.015C20.9881 961.43 16.6617 959.216 18.1078 957.45C18.537 956.926 18.4442 956.133 17.9021 955.689C17.2821 955.182 16.5662 955.998 15.9763 957.891C15.1874 960.417 14.5051 960.747 11.7196 959.944C8.82918 959.112 8.58464 958.732 9.81903 956.999C10.5991 955.904 11.4739 954.487 11.7646 953.849C12.0553 953.211 13.9914 950.498 16.0677 947.819C18.1441 945.14 19.5025 942.67 19.0848 942.328C18.667 941.986 15.9199 945.111 12.9789 949.271C10.0378 953.431 7.2755 956.543 6.84058 956.187C4.24021 954.058 1.47426 946.812 2.68636 945.304C3.48965 944.305 3.42185 943.733 2.52711 943.951C0.246762 944.506 -1.95228 942.188 -1.08035 940.149C-0.40823 938.577 -0.334378 938.638 -0.420881 940.689C-0.601728 944.969 0.516041 941.835 1.40327 935.578C2.53967 927.562 3.7659 926.108 4.06575 932.421C4.19508 935.154 4.53065 936.145 4.81055 934.623C5.09148 933.101 5.23213 929.634 5.12404 926.919L4.9286 921.982L1.79021 925.806C0.0640395 927.908 -1.74017 931.932 -2.22113 934.748C-2.85723 938.48 -3.53063 939.721 -4.7059 939.331C-5.61288 939.029 -5.57035 939.462 -4.60945 940.319C-2.34286 942.342 -3.93999 944.177 -6.29155 942.252C-7.29791 941.428 -9.52006 940.661 -11.23 940.546C-14.8504 940.305 -14.02 941.466 -9.92031 942.378C-8.3705 942.722 -6.36968 944.089 -5.47258 945.416C-3.98213 947.623 -4.33631 947.744 -9.66136 946.843C-12.9768 946.283 -16.9858 944.591 -18.98 942.912C-22.0896 940.294 -21.5892 940.339 -14.4882 943.307C-10.0931 945.144 -6.54508 946.278 -6.60377 945.825C-6.66221 945.375 -8.31291 944.434 -10.2711 943.737C-12.2302 943.039 -14.0711 941.831 -14.3631 941.051C-14.9492 939.481 -24.3165 937.05 -25.2732 938.219C-25.6049 938.624 -23.8061 940.651 -21.2746 942.723C-16.4086 946.707 -10.2499 948.773 -3.73349 948.607C-0.0220822 948.512 0.391152 948.791 3.33478 953.385L6.46094 958.264L-2.55296 969.859C-7.62766 976.388 -12.3194 981.506 -13.2906 981.574C-15.3655 981.719 -16.7394 976.918 -17.3008 967.557C-17.682 961.223 -16.8399 961.49 -15.2283 968.215C-14.5134 971.196 -14.4708 971.212 -14.4787 968.482C-14.487 965.838 -17.0445 958.924 -18.4362 957.784C-18.7528 957.525 -19.4637 959.662 -20.0162 962.533C-21.1659 968.516 -19.1052 982.711 -16.8143 984.586C-15.6765 985.518 -16.1961 987.067 -18.8049 990.52L-22.3358 995.192L-18.4447 991.213C-15.3925 988.091 -13.3396 987.197 -8.92319 987.066C-5.82609 986.975 -4.38436 986.792 -5.71847 986.661C-11.2474 986.119 -11.4015 985.851 -7.58586 983.437C-5.54409 982.144 -3.63529 981.408 -3.34486 981.8C-3.05442 982.192 -0.680129 982.292 1.9318 982.021C4.54371 981.751 6.13758 981.075 5.47527 980.52C4.71339 979.88 5.0741 979.629 6.45702 979.836C9.1287 980.236 10.0635 982.236 7.98596 983.107C7.14997 983.457 7.86567 983.497 9.57426 983.197C15.2707 982.194 15.0549 980.718 9.00383 979.301C4.38402 978.219 -1.40947 978.808 -6.72951 980.901C-10.5314 982.397 -10.3542 982.062 -1.73051 971.46L7.21082 960.47L11.6754 961.345C15.1178 962.02 16.4135 962.838 17.3345 964.913C17.9922 966.394 18.9977 967.574 19.5701 967.533C20.1434 967.493 20.0802 967.025 19.4318 966.495C18.7825 965.963 18.6027 965.099 19.0319 964.575C19.4611 964.051 21.205 964.762 22.9062 966.155C24.7116 967.633 25.4148 968.872 24.5947 969.129C22.9748 969.639 24.7994 971.209 28.4941 972.484C32.328 973.807 30.5602 970.298 25.1693 965.885L20.7363 962.256L25.2227 962.442C28.6613 962.585 30.7281 963.577 34.085 966.694C37.9671 970.299 38.1244 970.354 35.4807 967.181C32.8116 963.978 32.7897 963.656 35.2716 964.118C36.7974 964.402 38.8677 965.588 39.8729 966.751C41.6347 968.792 41.6527 968.779 40.3762 966.36C39.6484 964.979 38.5588 963.757 37.9553 963.642C35.5096 963.18 38.2105 962.103 42.1295 961.977C44.4325 961.904 48.1993 962.899 50.5011 964.189C52.8019 965.479 54.7518 965.91 54.8333 965.144C54.9175 964.343 56.8046 965.295 59.2838 967.388C62.3174 969.951 62.8361 970.764 61.0398 970.144C57.2919 968.849 58.9453 971.951 63.2592 974.306C65.2526 975.393 67.1453 975.962 67.4676 975.568C68.2363 974.629 63.7508 969.341 58.631 965.15C54.6187 961.865 54.6075 961.806 57.9465 961.405C60.3126 961.121 62.775 962.11 66.0884 964.676C70.805 968.33 70.8168 968.33 67.8734 964.755C65.5008 961.873 65.4359 961.54 67.5518 963.084C69.4713 964.487 70.002 964.481 69.49 963.063C68.8947 961.415 69.0657 961.206 70.5873 961.723C72.0587 962.222 72.1355 962.103 71.0102 961.08C70.0314 960.19 70.8862 959.699 73.9574 959.387C77.0948 959.069 79.4428 959.845 82.4979 962.21C86.5155 965.319 86.598 965.322 84.2628 962.275L81.8131 959.077L85.7861 961.097C88.3451 962.397 89.5252 962.491 89.1026 961.358C88.7414 960.392 87.5871 959.299 86.5363 958.928C84.9751 958.378 85.1294 958.061 87.3816 957.192C88.896 956.607 91.2445 956.592 92.5997 957.157C95.4049 958.328 104.467 957.203 105.84 955.512C106.342 954.896 104.709 955.047 102.212 955.849C94.3935 958.358 95.4938 955.988 103.645 952.76C108.5 950.837 111.355 950.337 111.254 951.426C111.165 952.384 112.416 951.565 114.035 949.606C115.652 947.647 116.569 945.71 116.071 945.302C115.572 944.894 112.402 944.934 109.028 945.391ZM70.4233 911.1C69.6276 911.349 69.9021 911.842 71.0683 912.253C73.3391 913.054 74.2193 912.632 72.7649 911.442C72.2409 911.013 71.1877 910.859 70.4233 911.1ZM55.5541 904.885C54.5378 905.602 54.7436 904.888 56.0111 903.299C57.2785 901.709 58.1091 901.122 57.8579 901.994C57.6066 902.866 56.5703 904.167 55.5541 904.885ZM103.503 950.98C93.8618 954.788 91.9088 954.66 97.2264 950.568C99.9299 948.488 110.913 945.856 112.267 946.965C112.518 947.17 108.574 948.977 103.503 950.98ZM72.1121 917.276C70.3356 916.724 69.9209 916.88 70.8931 917.733C71.7034 918.446 73.3903 919.171 74.6407 919.346C77.4112 919.734 75.8142 918.426 72.1121 917.276ZM-24.3899 848.41C-28.1249 852.973 -28.9443 862.108 -26.8457 875.801C-25.7201 883.142 -25.3954 888.273 -26.1237 887.202C-28.8625 883.177 -43.0846 868.861 -44.2628 868.942C-46.4166 869.093 -43.5948 879.649 -40.1559 884.305C-38.3313 886.774 -36.4858 888.771 -36.055 888.74C-35.6239 888.71 -36.8841 886.571 -38.8555 883.987C-40.8268 881.404 -42.4836 878.06 -42.5382 876.559C-42.6262 874.103 -42.4372 874.104 -40.6695 876.567C-39.0925 878.765 -38.8264 878.845 -39.3251 876.971C-39.8035 875.172 -38.5642 875.98 -33.9295 880.487C-27.8195 886.43 -25.7844 890.321 -28.3616 891.131C-29.3214 891.432 -28.9367 891.751 -27.1781 892.108C-25.1279 892.525 -24.0593 894.253 -22.172 900.204L-19.7732 907.77L-21.2997 899.764C-22.4782 893.576 -22.3205 891.44 -20.6014 890.364C-19.1232 889.437 -18.9332 888.881 -20.0327 888.705C-21.1332 888.529 -20.6121 887.026 -18.475 884.209C-15.9564 880.891 -15.862 880.517 -18.0371 882.483C-19.5624 883.861 -21.5532 885.053 -22.4618 885.129C-24.8485 885.331 -25.8786 877.054 -23.7856 874.497C-21.8431 872.125 -20.4536 857.054 -21.551 850.273L-22.271 845.822L-24.3899 848.41ZM3.74022 875.177C1.74608 874.217 1.64234 874.595 2.89658 878.271C3.68269 880.575 5.02882 882.994 5.88744 883.648C6.74606 884.301 6.69358 883.437 5.77033 881.727C4.38683 879.167 4.46092 878.804 6.19019 879.667C7.34346 880.243 8.61418 880.317 9.0114 879.832C9.76137 878.916 7.66933 877.068 3.74022 875.177ZM-22.7939 864.919C-23.1386 868.806 -23.6209 872.233 -23.8675 872.534C-24.4481 873.243 -26.3669 871.142 -27.1964 868.887C-28.259 865.998 -26.3095 854.451 -24.6703 853.936C-22.5526 853.271 -22.0322 856.314 -22.7939 864.919ZM-24.7769 855.073C-25.1491 855.528 -25.4751 857.274 -25.5025 858.952C-25.5492 861.896 -25.5085 861.91 -24.3588 859.371C-23.1729 856.748 -23.4884 853.5 -24.7769 855.073ZM-12.0692 868.656C-14.0461 869.662 -16.8422 872.297 -18.2843 874.513L-20.9069 878.542L-17.3953 874.599C-14.6942 871.565 -13.2763 870.878 -11.2559 871.616C-8.96008 872.456 -8.61816 872.214 -8.55238 869.703C-8.4822 867.002 -8.69559 866.939 -12.0692 868.656ZM73.5914 942.317C70.5402 944.171 67.2596 947.037 66.2993 948.686C64.7288 951.383 64.8515 951.367 67.5051 948.532C69.1308 946.798 71.5528 944.84 72.8897 944.183C74.9055 943.192 74.8835 943.58 72.7598 946.465C70.3895 949.687 70.4036 949.816 72.9615 948.223C76.8502 945.8 81.1756 940.618 80.066 939.709C79.5553 939.291 76.6408 940.464 73.5914 942.317ZM63.1871 936.442C56.2076 940.253 50.6889 945.624 49.5282 949.737C48.7754 952.402 49.1359 952.135 51.5813 948.217C53.2467 945.549 56.6737 942.069 59.3948 940.284L64.242 937.104L61.4663 941.2C59.9395 943.453 58.779 946.034 58.8879 946.937C59.0512 948.294 68.6636 935.452 68.6429 933.905C68.6396 933.664 66.1842 934.806 63.1871 936.442ZM9.07469 887.493C10.1411 888.744 12.1882 890.42 13.6261 891.219C15.0647 892.016 14.1924 890.991 11.6891 888.942C9.1858 886.892 8.00906 886.24 9.07469 887.493ZM11.2665 893.707C7.00415 892.112 6.86875 892.162 8.07814 894.886C9.63519 898.394 10.5545 899.223 10.7589 897.3C10.853 896.416 12.6616 897.221 15.3271 899.336C17.7546 901.262 20.9491 903.218 22.4261 903.683C24.1631 904.23 23.0251 903.067 19.2077 900.392C14.9746 897.427 14.0847 896.469 16.0657 897.008C20.1086 898.11 16.6165 895.706 11.2665 893.707ZM-26.3757 865.218C-26.6312 866.713 -26.5791 868.634 -26.2593 869.49C-25.9403 870.347 -25.5396 869.282 -25.3693 867.124C-25.01 862.554 -25.6965 861.254 -26.3757 865.218ZM94.695 962.662C95.2903 964.309 95.1084 964.532 93.5314 964.083C92.5036 963.791 93.2123 964.446 95.1044 965.539C98.3603 967.418 98.3758 967.517 95.3997 967.364C91.1038 967.141 92.7863 968.278 97.7303 968.939L101.739 969.474L99.8215 966.828C96.8608 962.744 93.8373 960.286 94.695 962.662ZM-14.8726 876.317C-15.9457 877.628 -16.1554 878.352 -15.3384 877.926C-14.521 877.501 -13.6431 876.429 -13.3873 875.543C-13.1314 874.658 -13.7996 875.006 -14.8726 876.317ZM-13.3992 880.707C-14.4722 882.018 -14.682 882.743 -13.8649 882.316C-13.0476 881.892 -12.1696 880.819 -11.9139 879.933C-11.6579 879.049 -12.3261 879.397 -13.3992 880.707ZM39.6777 928.873C34.9914 929.084 32.1586 929.903 31.7716 931.158C31.4383 932.234 30.7264 932.753 30.1883 932.312C29.6492 931.871 28.5214 932.202 27.6837 933.048C26.8449 933.893 27.6026 932.185 29.3674 929.252L32.5756 923.917L27.9755 929.212C21.4287 936.749 18.5823 935.429 18.8108 924.964C18.8724 922.204 18.2919 919.959 17.5237 919.975C16.7537 919.991 16.9513 919.716 17.961 919.366C19.3329 918.889 20.1021 920.721 21.0167 926.644L22.2367 934.559L22.2472 928.199C22.2605 919.979 21.0774 912.906 19.7038 913.001C15.8112 913.274 14.3263 932.064 17.9624 935.041C18.99 935.882 19.6789 937.7 19.4955 939.082C19.25 940.925 19.4666 941.236 20.3124 940.251C20.9443 939.512 23.3088 938.72 25.5637 938.491C29.3284 938.11 29.4524 938 27.0784 937.163C24.5272 936.264 24.5477 936.235 28.6263 935.074C30.9011 934.427 34.8281 933.2 37.3538 932.348C39.8794 931.495 42.1269 931.28 42.3471 931.869C42.5663 932.458 44.1261 932.3 45.8102 931.518C50.264 929.452 48.0501 928.497 39.6777 928.873ZM71.2566 952.532C70.396 953.682 70.4508 954.104 71.3954 953.608C72.2512 953.159 72.8883 952.307 72.8115 951.715C72.7349 951.124 72.0357 951.491 71.2566 952.532ZM-3.91838 892.566C-5.20884 893.197 -8.30606 896.34 -10.8015 899.552C-14.2405 903.977 -15.2013 904.732 -14.7717 902.67C-14.3496 900.648 -14.912 901.129 -16.9593 904.54C-19.2412 908.338 -20.3203 909.128 -23.2243 909.126C-25.1537 909.124 -26.6649 909.644 -26.5825 910.279C-26.4992 910.914 -27.3327 910.754 -28.4323 909.923C-29.5329 909.09 -30.0461 909.085 -29.5732 909.909C-29.1 910.734 -26.5631 911.614 -23.9333 911.864C-21.2477 912.12 -18.6521 913.159 -18.0106 914.237C-17.0367 915.87 -16.881 915.766 -16.9616 913.535C-17.0921 909.908 -6.36952 894.536 -5.14268 896.593C-4.15027 898.257 -3.41833 897.557 -2.3122 893.88C-1.58238 891.45 -1.60265 891.433 -3.91838 892.566ZM36.7601 931.472C34.5426 932.364 32.6705 932.645 32.5992 932.095C32.4663 931.071 39.3651 928.68 40.2834 929.431C40.5626 929.66 38.9776 930.579 36.7601 931.472ZM49.3561 937.655C47.2792 938.44 40.5635 948.767 41.587 949.605C42.6531 950.477 44.9289 947.747 48.2913 941.56C49.6087 939.135 50.0888 937.379 49.3561 937.655ZM35.1998 934.929C32.2526 935.96 30.0449 936.971 30.2947 937.176C30.9916 937.746 40.7466 934.501 40.6468 933.731C40.5985 933.359 38.1471 933.898 35.1998 934.929ZM42.4399 940.057C40.7966 940.958 37.8666 943.753 35.9283 946.27L32.4046 950.844L37.4604 946.226C40.2409 943.686 43.459 941.125 44.6113 940.537C45.7625 939.948 46.419 939.231 46.067 938.943C45.716 938.655 44.0842 939.157 42.4399 940.057ZM76.5578 965.496C78.4755 967.693 79.2544 968.946 78.2873 968.278C76.6272 967.132 70.9269 967.255 72.3338 968.407C72.6979 968.705 75.1262 969.632 77.7299 970.469C83.9295 972.461 84.0235 969.958 77.9263 965.25L73.0709 961.501L76.5578 965.496ZM-11.5003 895.857C-12.5441 896.425 -13.78 897.414 -14.2474 898.055C-14.713 898.696 -13.817 898.551 -12.2561 897.732C-10.6945 896.912 -9.45951 895.923 -9.5101 895.533C-9.5607 895.143 -10.4567 895.288 -11.5003 895.857ZM-2.33693 907.387C-5.45932 909.891 -10.0658 918.231 -10.8481 922.802C-11.3602 925.797 -11.9487 925.566 -13.8977 921.608C-15.2366 918.889 -15.2579 918.899 -14.5337 921.883C-14.1207 923.583 -13.343 925.418 -12.805 925.962C-12.2661 926.507 -13.4599 926.162 -15.4565 925.196L-19.0862 923.439L-16.208 926.114L-13.3291 928.788L-18.8521 927.28C-21.8896 926.451 -23.7849 926.273 -23.0644 926.887C-22.344 927.499 -20.4328 928.295 -18.8177 928.654C-16.5771 929.152 -16.2812 929.433 -17.5693 929.838C-20.1596 930.652 -27.8299 927.818 -31.4686 924.702L-34.7281 921.911L-29.6023 923.904C-25.0982 925.655 -24.9266 925.633 -28.1859 923.721C-33.2977 920.721 -32.0303 920.023 -25.1095 922.027C-21.9178 922.951 -19.9248 923.184 -20.6821 922.545C-21.4393 921.906 -25.7004 920.677 -30.1488 919.815C-36.9845 918.489 -38.028 918.606 -36.8785 920.562C-33.0621 927.061 -23.0778 931.837 -14.2078 931.409C-10.0986 931.209 -8.79436 930.433 -5.53898 926.25C-2.37366 922.182 -2.23206 921.726 -4.72702 923.631C-7.69162 925.894 -7.7018 925.836 -5.30928 920.458C-2.159 913.381 -1.44519 912.674 -1.958 917.141C-2.46057 921.533 -1.91136 920.309 0.282782 912.16C1.19303 908.779 1.65452 905.778 1.30815 905.491C0.96178 905.205 -0.67774 906.058 -2.33693 907.387ZM53.8092 955.63C52.1034 957.736 51.7004 958.651 52.9129 957.663C54.1255 956.675 55.5212 954.952 56.0144 953.834C56.5076 952.715 55.5149 953.523 53.8092 955.63ZM17.7137 927.274C17.5496 930.811 17.2851 931.442 16.8029 929.445C16.1173 926.606 16.5978 921.186 17.4727 921.902C17.7326 922.115 17.8407 924.531 17.7137 927.274ZM-37.3686 881.288C-36.5923 882.325 -34.9983 883.629 -33.8286 884.186C-32.6598 884.743 -33.295 883.895 -35.242 882.301C-37.189 880.707 -38.1457 880.252 -37.3686 881.288ZM-2.13497 912.848C-3.03269 913.336 -4.78256 916.022 -6.02455 918.819C-10.3327 928.512 -10.4715 928.724 -9.91296 924.757C-9.07805 918.843 -4.92143 911.048 -2.77131 911.364C-0.312391 911.726 -0.267096 911.831 -2.13497 912.848ZM27.9497 943.701C26.3208 943.967 25.0082 945.404 23.5253 948.538C21.4546 952.912 21.4636 952.94 23.99 950.058C25.4043 948.444 27.2257 947.389 28.0372 947.715C29.0605 948.126 29.6271 947.545 29.889 945.814C30.2122 943.677 29.9333 943.374 27.9497 943.701ZM51.9658 967.188C53.0375 968.445 54.8651 969.927 56.0271 970.481C57.1892 971.034 56.3125 970.004 54.0788 968.193C51.845 966.382 50.8941 965.93 51.9658 967.188ZM-27.6936 904.033C-30.2922 902.956 -30.503 903.032 -28.89 904.463C-27.8133 905.417 -25.9097 906.342 -24.6594 906.517C-22.0039 906.888 -23.2338 905.882 -27.6936 904.033ZM46.0896 965.571C44.7702 964.913 42.9695 964.405 42.0885 964.443C41.2075 964.482 42.6432 965.513 45.2805 966.735C52.3867 970.029 53.0649 969.054 46.0896 965.571ZM-36.0675 899.817C-37.1166 899.396 -38.8307 898.705 -39.8774 898.281C-43.0208 897.005 -39.4222 903.897 -35.2722 907.1L-31.6487 909.896L-35.1356 905.901L-38.6225 901.907L-34.3412 904.931L-30.0598 907.955L-33.2455 904.624C-35.9301 901.818 -36.0127 901.432 -33.7723 902.172C-30.8624 903.133 -32.8271 901.117 -36.0675 899.817ZM19.9906 949.438C18.4884 951.273 18.0825 952.194 19.0872 951.485C20.0928 950.777 21.3227 949.274 21.8186 948.148C22.3155 947.024 21.4929 947.603 19.9906 949.438ZM50.6437 972.063C50.2953 973.19 49.0869 973.492 47.527 972.841C46.1248 972.255 45.0214 972.119 45.0765 972.537C45.1298 972.954 47.7121 974.045 50.8149 974.959C56.7303 976.703 57.8419 975.649 53.6799 972.242C51.9403 970.818 51.044 970.765 50.6437 972.063ZM0.264214 934.881C-0.160711 937.161 -0.735852 938.839 -1.01399 938.611C-1.29214 938.384 -1.17215 936.333 -0.747221 934.053C-0.32229 931.774 0.252851 930.096 0.530992 930.323C0.809134 930.551 0.689144 932.602 0.264214 934.881ZM3.36555 939.479C2.97637 940.73 3.10869 941.722 3.66057 941.684C4.21167 941.646 4.53093 940.622 4.36901 939.409C4.13452 937.657 3.92945 937.672 3.36555 939.479ZM40.7358 970.693C41.2395 971.566 42.1404 972.246 42.7353 972.204C43.3302 972.163 42.9176 971.449 41.818 970.617C40.6023 969.699 40.1776 969.728 40.7358 970.693ZM58.9158 994.281C51.8954 995.921 51.7741 996.003 51.6231 999.217C51.5394 1000.99 51.7832 1000.87 52.6872 998.695C53.4158 996.944 54.0605 996.409 54.3862 997.282C54.6764 998.056 55.8945 997.996 57.0957 997.15C58.2968 996.304 59.5063 996.219 59.7847 996.965C60.062 997.709 61.539 997.199 63.0668 995.832C64.5943 994.463 65.6976 993.225 65.5195 993.079C65.3415 992.934 62.3696 993.475 58.9158 994.281ZM77.3846 1005.76C74.9205 1005.36 71.162 1005.31 69.0326 1005.64C66.0843 1006.1 66.5821 1006.28 71.1206 1006.38C74.3977 1006.46 78.3642 1006.72 79.9354 1006.96C81.5055 1007.21 82.5825 1007.2 82.3278 1006.94C82.0738 1006.68 79.8495 1006.15 77.3846 1005.76ZM68.3512 1010.83C62.3896 1011.43 57.3092 1011.36 57.0587 1010.69C56.8079 1010.02 56.1659 1010.01 55.6314 1010.66C55.0976 1011.31 52.7364 1012.11 50.3831 1012.43L46.1064 1013.01L50.4557 1012.99C52.8481 1012.98 55.3449 1013.41 56.0044 1013.95C56.6648 1014.49 57.5442 1014.52 57.9601 1014.01C58.3753 1013.5 59.1637 1013.83 59.7115 1014.75C60.2591 1015.67 61.3762 1016.21 62.1927 1015.96C63.096 1015.67 62.8814 1015.21 61.6441 1014.77C57.9551 1013.47 60.766 1012.49 70.2505 1011.77C75.3953 1011.38 79.5101 1010.76 79.3954 1010.4C79.2817 1010.04 74.311 1010.23 68.3512 1010.83ZM41.1371 992.623C36.2341 995.296 36.2192 995.32 39.847 994.741C42.3908 994.335 43.3798 994.656 43.068 995.786C42.82 996.683 43.69 995.967 45.0004 994.193C48.2146 989.846 47.0769 989.383 41.1371 992.623ZM61.5418 1007.47C60.0256 1008.06 58.8285 1008.87 58.8826 1009.28C58.9358 1009.69 60.3778 1009.38 62.0873 1008.59C65.841 1006.84 65.4168 1005.98 61.5418 1007.47ZM69.1809 1015.58L65.4982 1016.15L69.2606 1016.2C72.7957 1016.24 74.0216 1015.96 73.2125 1015.3C73.0203 1015.14 71.2062 1015.27 69.1809 1015.58ZM-77.1995 903.707C-79.1839 908.683 -79.9365 918.104 -78.6487 921.845C-77.9479 923.882 -75.7993 927.099 -73.8739 928.993C-71.9492 930.889 -69.4336 934.539 -68.2834 937.106L-66.1927 941.775L-73.7198 936.525L-81.2478 931.276L-73.8923 937.767C-68.401 942.613 -67.4467 943.802 -70.1306 942.458L-73.7245 940.657L-71.0266 943.552L-68.3279 946.446L-73.2115 944.564C-76.1128 943.447 -78.9685 941.49 -80.247 939.746L-82.3981 936.808L-79.2787 938.156C-76.2092 939.483 -76.2056 939.462 -79.0236 936.813C-80.5988 935.332 -82.2699 933.893 -82.7391 933.614C-83.2076 933.334 -83.2386 932.676 -82.8094 932.152C-82.3802 931.627 -82.7389 930.617 -83.6057 929.908C-86.0281 927.924 -85.7645 931.017 -83.0063 936.928C-80.1742 942.997 -76.1097 945.841 -68.4496 947.111C-64.8575 947.706 -63.0649 947.231 -61.4731 945.264C-60.0512 943.507 -59.9508 942.802 -61.176 943.17C-62.6873 943.625 -63.0271 943.347 -63.0603 941.627C-63.1096 939.059 -61.0171 928.23 -60.303 927.358C-59.1933 926.002 -58.6915 932.061 -59.5233 936.772C-60.0061 939.504 -60.0452 941.314 -59.612 940.793C-57.9617 938.817 -57.7481 922.417 -59.3532 921.103C-60.7753 919.939 -65.6203 928.162 -66.0818 932.523C-66.9038 940.272 -68.4323 936.886 -69.0855 925.868C-69.4134 920.342 -70.292 914.544 -71.0378 912.983C-71.7838 911.42 -71.6878 913.736 -70.8245 918.127C-69.962 922.519 -69.6659 926.14 -70.1659 926.175C-71.5671 926.273 -74.8457 909.894 -73.508 909.474C-72.3144 909.099 -73.6979 902.991 -75.2676 901.706C-75.7379 901.321 -76.6073 902.222 -77.1995 903.707ZM45.6543 1004.68C44.3868 1006.27 44.181 1006.98 45.1973 1006.27C46.2135 1005.55 47.2499 1004.25 47.5011 1003.37C47.7523 1002.5 46.9217 1003.09 45.6543 1004.68ZM-74.4152 908.613C-75.111 908.832 -74.8897 913.312 -73.9241 918.568C-72.7757 924.823 -72.7773 927.627 -73.9283 926.685C-76.8513 924.292 -78.0319 920.319 -77.8253 913.575C-77.6762 908.744 -77.1566 907.237 -75.7131 907.45C-73.2088 907.821 -72.8682 908.127 -74.4152 908.613ZM34.8085 999.117C33.9479 1000.27 34.0027 1000.69 34.9473 1000.19C35.8031 999.745 36.4402 998.892 36.3635 998.301C36.2868 997.71 35.5876 998.077 34.8085 999.117ZM27.4825 993.291C23.6585 997.063 22.1766 998.993 22.745 999.458C23.7746 1000.3 29.1406 995.119 28.6364 993.768C28.394 993.119 27.8743 992.904 27.4825 993.291ZM45.1538 1009.18C44.2932 1010.33 44.348 1010.75 45.2926 1010.26C46.1483 1009.81 46.7854 1008.95 46.7087 1008.36C46.632 1007.77 45.9329 1008.14 45.1538 1009.18ZM28.8348 1000.46C27.5673 1002.05 27.3615 1002.77 28.3777 1002.05C29.394 1001.33 30.4304 1000.03 30.6816 999.158C30.9328 998.286 30.1022 998.874 28.8348 1000.46ZM33.8919 1004.6C32.6245 1006.19 32.4186 1006.91 33.4349 1006.19C34.4511 1005.47 35.4875 1004.17 35.7387 1003.3C35.9899 1002.43 35.1593 1003.01 33.8919 1004.6ZM-63.1167 933.546C-63.8756 937.523 -64.6974 940.61 -64.9432 940.409C-65.9313 939.6 -64.8865 931.401 -63.3816 928.157C-61.4058 923.895 -61.3786 924.446 -63.1167 933.546ZM1.14791 981.031C-0.861843 981.602 -2.55973 981.65 -2.62649 981.135C-2.73762 980.278 3.5692 978.983 4.42789 979.686C4.63221 979.854 3.15666 980.459 1.14791 981.031ZM39.1724 1009.3C38.5837 1009.34 37.1769 1010.51 36.0461 1011.89C34.9161 1013.27 32.9188 1014.55 31.6072 1014.73C30.2966 1014.91 31.1824 1015.06 33.5776 1015.05C35.9728 1015.05 37.9984 1015.55 38.0783 1016.17C38.2292 1017.33 43.3649 1017.39 44.3061 1016.24C44.6018 1015.88 43.7483 1015.06 42.411 1014.43C41.0726 1013.79 40.4845 1013.11 41.1047 1012.92C42.4606 1012.49 40.6991 1009.2 39.1724 1009.3ZM51.5684 1019.37C52.0721 1020.24 52.973 1020.92 53.5679 1020.88C54.1628 1020.83 53.7502 1020.12 52.6506 1019.29C51.4348 1018.37 51.0102 1018.4 51.5684 1019.37ZM56.3946 1023.96C58.8281 1028.16 56.544 1027.65 50.5052 1022.61L45.2238 1018.22L49.1922 1022.64C51.8048 1025.55 54.5399 1027.5 57.1947 1028.34L61.2287 1029.62L59.222 1026.26C58.1191 1024.41 56.6544 1022.49 55.9684 1021.98C55.2817 1021.47 55.4739 1022.36 56.3946 1023.96ZM-52.0979 940.178C-53.0238 941.39 -54.0939 943.559 -54.4739 944.999L-55.1659 947.617L-53.4625 945.827L-51.7591 944.038L-52.4511 946.655C-53.4208 950.324 -54.168 951.186 -54.8365 949.398C-55.1511 948.554 -55.7731 949.816 -56.2169 952.201C-56.6614 954.586 -57.639 956.732 -58.3887 956.966C-59.1392 957.202 -59.2709 957.79 -58.6822 958.272C-58.0936 958.754 -57.8751 959.469 -58.1984 959.862C-58.5218 960.255 -63.0112 958.443 -68.1748 955.838C-79.4085 950.17 -82.1294 949.502 -81.0369 952.685C-80.6246 953.884 -79.3586 955.587 -78.2219 956.468C-76.2032 958.037 -76.1874 958.019 -77.5305 955.735C-78.8031 953.569 -78.6845 953.501 -75.9197 954.799C-74.2784 955.57 -71.7865 957.119 -70.3833 958.243C-68.3243 959.892 -67.9707 959.858 -68.5525 958.07C-69.0688 956.48 -68.3076 956.947 -65.8594 959.722C-63.4099 962.5 -62.3982 963.121 -62.2706 961.923C-62.1734 961.006 -61.6394 960.628 -61.0831 961.083C-58.3968 963.282 -60.9364 964.591 -65.7546 963.492C-68.7163 962.816 -70.6757 962.673 -70.1086 963.177C-69.5407 963.68 -65.8009 964.578 -61.7986 965.172C-56.3666 965.978 -54.5867 965.739 -54.7826 964.228C-54.927 963.115 -54.0059 960.87 -52.7356 959.239C-50.7527 956.691 -50.7717 956.44 -52.869 957.459C-55.2446 958.611 -55.2823 958.57 -54.243 955.953C-53.6566 954.473 -53.66 953.186 -54.2509 953.09C-54.8426 952.996 -54.2939 951.657 -53.032 950.116C-51.0677 947.716 -50.651 947.667 -50.14 949.767C-49.8112 951.117 -49.4036 949.305 -49.2349 945.74C-48.8901 938.43 -49.6421 936.968 -52.0979 940.178ZM1.6626 984.783C-0.419335 985.376 -1.38439 985.979 -0.481616 986.123C1.24199 986.399 6.60528 984.653 5.873 984.054C5.63936 983.862 3.74552 984.191 1.6626 984.783ZM-16.277 982.944C-17.0551 983.894 -18.6886 977.914 -19.2341 972.112C-19.8391 965.676 -19.8312 965.689 -17.9129 974.109C-16.851 978.769 -16.1139 982.745 -16.277 982.944ZM-13.8578 975.862C-13.9571 978.408 -13.811 980.676 -13.5329 980.904C-13.2547 981.132 -12.9456 979.236 -12.8464 976.69C-12.7471 974.144 -12.8931 971.875 -13.1712 971.647C-13.4494 971.42 -13.7586 973.316 -13.8578 975.862ZM22.8133 1009C19.8248 1013.52 18.6839 1014.37 15.061 1014.73C9.09878 1015.34 8.33931 1014.12 12.4457 1010.53C15.4876 1007.87 15.5617 1007.66 12.984 1008.96C11.3387 1009.79 9.60123 1011.36 9.122 1012.44C8.5393 1013.76 7.92304 1013.87 7.26326 1012.76C6.72021 1011.85 6.78764 1010.35 7.41423 1009.43C8.04082 1008.5 6.88364 1009.22 4.84276 1011.02C1.98605 1013.54 -0.0796993 1014.15 -4.13328 1013.66C-8.1787 1013.16 -9.3584 1012.58 -9.22357 1011.13C-9.09826 1009.81 -9.53408 1009.79 -10.7038 1011.08C-11.6138 1012.09 -12.1507 1012.19 -11.894 1011.3C-11.1757 1008.82 -13.1052 1007.96 -14.7886 1010.01C-15.9389 1011.42 -17.8741 1011.15 -22.9857 1008.88C-26.6659 1007.24 -29.9252 1005.7 -30.2276 1005.45C-30.5301 1005.2 -29.1015 1002.61 -27.052 999.69L-23.326 994.381L-27.5018 999.1C-31.5506 1003.68 -31.7547 1003.74 -34.1921 1001.22C-36.6451 998.676 -36.6589 998.681 -34.7789 1001.42C-33.1594 1003.78 -33.3735 1005.05 -36.1239 1009.44L-39.395 1014.66L-35.7149 1010.49L-32.0341 1006.32L-24.1229 1009.87C-19.6983 1011.86 -15.3956 1014.56 -14.3584 1016C-12.924 1017.99 -12.6629 1018.07 -13.2027 1016.33C-13.7704 1014.51 -13.4254 1014.47 -11.3476 1016.13C-9.26381 1017.79 -8.92161 1017.76 -9.48478 1015.92C-9.92902 1014.46 -9.65028 1013.83 -8.70194 1014.14C-7.89235 1014.4 -4.91094 1014.8 -2.07596 1015.02C0.760026 1015.24 3.49938 1016.13 4.01221 1016.99C4.53428 1017.86 5.95124 1017.92 7.22793 1017.12C8.75795 1016.16 10.4225 1016.4 12.2777 1017.84C14.4788 1019.56 14.7845 1019.55 13.7691 1017.81C12.5503 1015.73 12.6454 1015.62 15.8472 1015.56C17.692 1015.52 20.1856 1016.19 21.3879 1017.04C22.5901 1017.89 23.6296 1018.06 23.6978 1017.42C23.7642 1016.78 24.9854 1017.21 26.4085 1018.38C27.8316 1019.54 29.3861 1020.02 29.8614 1019.44C30.41 1018.77 29.5437 1017.81 27.4977 1016.81C24.5204 1015.36 24.4908 1015.19 27.1066 1014.67C29.4397 1014.21 29.2331 1014.09 25.9543 1014.03C22.3493 1013.95 22.1636 1013.83 24.0359 1012.77C25.2739 1012.07 25.5142 1011.5 24.6316 1011.36C23.8191 1011.23 23.7825 1010.34 24.5509 1009.39C25.3184 1008.43 26.0313 1006.76 26.1328 1005.68C26.2416 1004.53 24.8541 1005.92 22.8133 1009ZM14.8674 998.714C14.0068 999.864 14.0616 1000.29 15.0062 999.791C15.8619 999.342 16.499 998.489 16.4223 997.898C16.3456 997.306 15.6465 997.673 14.8674 998.714ZM28.0159 1009.48C27.1553 1010.63 27.2101 1011.05 28.1547 1010.55C29.0105 1010.11 29.6475 1009.25 29.5708 1008.66C29.4941 1008.07 28.795 1008.44 28.0159 1009.48ZM47.6663 1024.13C48.17 1025 49.071 1025.68 49.6659 1025.64C50.2607 1025.6 49.8482 1024.89 48.7486 1024.06C47.5328 1023.14 47.1081 1023.17 47.6663 1024.13ZM7.25825 994.288C5.89796 994.737 4.21431 996.428 3.51749 998.047L2.2502 1000.99L5.07504 999.05C6.62907 997.983 8.31271 996.292 8.8168 995.292C9.62334 993.69 9.43883 993.571 7.25825 994.288ZM-43.5335 960.528C-48.4769 966.571 -49.521 977.369 -44.8457 974.097C-43.7807 973.352 -43.9373 973.246 -45.5166 973.644C-48.8224 974.475 -47.2077 968.892 -43.005 964.959C-40.526 962.639 -39.6019 960.891 -39.9757 959.228C-40.434 957.186 -40.9578 957.378 -43.5335 960.528ZM9.95396 1002.65C9.09333 1003.8 9.14813 1004.22 10.0928 1003.73C10.9485 1003.28 11.5855 1002.43 11.5088 1001.84C11.4321 1001.24 10.733 1001.61 9.95396 1002.65ZM34.3519 1021.18C39.7742 1026.8 40.8349 1028.6 39.2237 1029.48C38.0575 1030.11 38.4248 1030.79 40.6007 1032C42.2336 1032.91 43.8637 1033.29 44.2227 1032.85C45.1623 1031.7 39.5464 1024.34 35.2626 1021.1C31.815 1018.49 31.764 1018.5 34.3519 1021.18ZM32.5265 1022.89C33.3029 1023.93 34.8969 1025.23 36.0665 1025.79C37.2354 1026.35 36.6002 1025.5 34.6532 1023.91C32.7062 1022.31 31.7494 1021.86 32.5265 1022.89ZM-36.2795 975.418C-37.3016 977.428 -38.3502 981.569 -38.6117 984.62C-39.2112 991.653 -39.5693 992.022 -42.3055 988.441C-45.5569 984.186 -45.7506 981.835 -43.1365 978.367L-40.8158 975.287L-43.9287 977.515C-45.6412 978.74 -46.7162 979.234 -46.3168 978.612C-45.9174 977.99 -46.991 976.334 -48.7034 974.932C-51.0347 973.024 -51.5883 972.924 -50.9097 974.532C-49.5145 977.838 -50.9984 978.532 -54.996 976.441C-56.9939 975.396 -58.5748 974.958 -58.5087 975.468C-58.4416 975.978 -56.6383 977.071 -54.4999 977.896C-52.3622 978.723 -50.6663 979.901 -50.731 980.517C-50.7966 981.133 -53.5807 980.321 -56.9181 978.712C-60.2556 977.104 -62.9361 976.183 -62.8727 976.665C-62.8101 977.148 -60.6848 978.382 -58.1479 979.408C-52.1408 981.838 -51.9213 983.768 -57.8593 981.946C-60.3836 981.171 -61.7361 981.15 -60.8632 981.899C-59.9895 982.648 -56.4343 983.509 -52.9634 983.811C-47.0885 984.323 -46.4194 984.674 -43.3193 988.85C-39.5265 993.963 -39.7407 995.287 -44.0256 993.198C-47.9747 991.272 -57.2409 989.649 -58.1251 990.729C-58.5114 991.201 -57.096 992.955 -54.9808 994.626C-52.1044 996.897 -51.4803 997.073 -52.5091 995.323C-53.7108 993.279 -53.3424 993.192 -49.588 994.642C-43.9909 996.804 -43.4277 997.403 -47.234 997.15C-48.944 997.035 -49.9575 997.258 -49.4871 997.643C-47.8234 999.005 -37.8686 999.001 -36.7526 997.638C-35.5531 996.173 -36.1121 988.461 -37.4559 987.921C-37.8935 987.746 -37.3872 986.548 -36.3321 985.259C-33.8301 982.203 -33.541 982.599 -34.0463 988.391C-34.2776 991.049 -34.0961 992.197 -33.6427 990.946C-32.5807 988.016 -32.5594 973.445 -33.6159 972.493C-34.0594 972.091 -35.2573 973.408 -36.2795 975.418ZM26.1186 1022.47C27.4691 1023.94 29.9734 1025.99 31.6814 1027.02C33.3894 1028.05 32.2842 1026.85 29.2247 1024.35C26.1651 1021.84 24.768 1021 26.1186 1022.47ZM-44.2574 967.599C-44.8762 968.355 -45.1659 969.551 -44.9016 970.257C-44.639 970.964 -43.9576 970.489 -43.3896 969.201C-42.1853 966.469 -42.6419 965.626 -44.2574 967.599ZM-41.3176 971.362C-41.7067 972.613 -41.5745 973.605 -41.0226 973.567C-40.4715 973.529 -40.1522 972.505 -40.3141 971.292C-40.5486 969.54 -40.7537 969.555 -41.3176 971.362ZM-33.6249 980.516C-33.7184 981.392 -34.62 982.093 -35.6299 982.072C-36.6395 982.052 -37.0124 981.93 -36.457 981.801C-35.9033 981.671 -35.4851 980.574 -35.5282 979.364C-35.583 977.861 -35.2668 977.441 -34.5314 978.043C-33.9408 978.527 -33.5325 979.64 -33.6249 980.516ZM19.2869 1023.81C20.3397 1025.63 20.3044 1026.99 19.1871 1027.6C17.8452 1028.33 18.2539 1029.22 20.9493 1031.42C22.8791 1033 24.6265 1034.09 24.8325 1033.84C25.4256 1033.11 20.4935 1023.08 18.9956 1021.96C18.2502 1021.41 18.3821 1022.24 19.2869 1023.81ZM-9.22133 1003.54C-10.2944 1004.85 -10.5041 1005.58 -9.68706 1005.15C-8.86975 1004.72 -7.99179 1003.65 -7.73605 1002.77C-7.48007 1001.88 -8.14827 1002.23 -9.22133 1003.54ZM9.84689 1018.61C10.3258 1019.45 11.4637 1020.38 12.3754 1020.68C13.2875 1020.99 12.8952 1020.31 11.5045 1019.17C10.1137 1018.03 9.36821 1017.78 9.84689 1018.61ZM14.904 1022.75C15.3829 1023.59 16.5208 1024.52 17.4326 1024.82C18.3446 1025.13 17.9523 1024.45 16.5616 1023.31C15.1709 1022.17 14.4253 1021.92 14.904 1022.75ZM-54.0196 968.655C-53.8666 969.87 -53.29 970.83 -52.7391 970.791C-52.1873 970.752 -52.3123 969.76 -53.0162 968.585C-54.0345 966.889 -54.2397 966.902 -54.0196 968.655ZM-6.49091 1008.3C-7.35154 1009.45 -7.29677 1009.87 -6.35214 1009.37C-5.49639 1008.92 -4.85927 1008.07 -4.93597 1007.48C-5.01267 1006.89 -5.71186 1007.26 -6.49091 1008.3ZM8.48275 1022.34C9.54916 1023.59 11.5963 1025.27 13.0342 1026.07C14.4728 1026.87 13.6004 1025.84 11.0972 1023.79C8.59387 1021.74 7.41713 1021.09 8.48275 1022.34ZM0.168239 1024.76L1.58158 1028.19L-0.78188 1026.31C-2.08931 1025.27 -3.21349 1025.09 -3.29992 1025.9C-3.48183 1027.62 2.20832 1032.59 3.10578 1031.49C3.79254 1030.65 1.0086 1023.03 -0.361322 1021.99C-0.847249 1021.63 -0.609064 1022.87 0.168239 1024.76ZM-66.5514 972.133C-73.3656 970.422 -73.8742 972.057 -68.1005 977.121C-63.7448 980.941 -63.4924 981.033 -65.8873 977.923C-69.7317 972.929 -69.4566 972.213 -64.2994 973.786C-61.7967 974.548 -60.1756 974.766 -60.6975 974.268C-61.2195 973.771 -63.8537 972.81 -66.5514 972.133ZM-7.06001 1020.69C-6.5811 1021.53 -5.44325 1022.46 -4.53145 1022.76C-3.61942 1023.07 -4.01168 1022.39 -5.40239 1021.25C-6.7931 1020.11 -7.53868 1019.86 -7.06001 1020.69ZM-10.159 1021.38C-9.38272 1022.42 -7.7887 1023.72 -6.61903 1024.28C-5.45017 1024.84 -6.08542 1023.99 -8.0324 1022.4C-9.9794 1020.8 -10.9361 1020.35 -10.159 1021.38ZM-41.1908 997.845C-41.7921 997.886 -43.7315 996.846 -45.501 995.533C-47.3617 994.151 -47.939 993.269 -46.8708 993.44C-44.6856 993.79 -39.5997 997.733 -41.1908 997.845ZM-45.3609 1018.71C-53.9506 1028.74 -57.7684 1031.58 -60.2874 1029.8C-61.9266 1028.64 -61.9951 1028.28 -60.5337 1028.52C-59.0372 1028.75 -59.1405 1027.24 -60.9276 1022.77C-64.3232 1014.27 -72.1124 999.555 -73.5142 998.993C-75.4378 998.221 -74.2111 1017.44 -72.0234 1022.34C-70.9069 1024.85 -68.0407 1028.52 -65.6525 1030.52L-61.3109 1034.14L-69.1951 1042.41C-73.5312 1046.96 -77.9149 1051.25 -78.9357 1051.95C-79.9555 1052.65 -80.355 1053.57 -79.8219 1054.01C-79.2889 1054.45 -74.6488 1050.34 -69.5104 1044.88L-60.1687 1034.96L-54.9502 1036.22C-46.7793 1038.2 -24.8248 1035.36 -25.212 1032.38C-25.2921 1031.76 -29.6154 1030.2 -34.8183 1028.92C-41.7386 1027.21 -45.3715 1027.07 -48.3509 1028.39C-50.5908 1029.38 -52.6813 1030 -52.9951 1029.76C-53.3096 1029.53 -51.1598 1026.77 -48.2181 1023.63C-45.2762 1020.49 -42.4188 1016.92 -41.8668 1015.69C-41.3165 1014.46 -42.8886 1015.82 -45.3609 1018.71ZM-41.0953 1030.86C-45.7736 1030.93 -49.1508 1031.35 -48.5995 1031.8C-48.0493 1032.26 -43.5726 1032.61 -38.6532 1032.59C-33.733 1032.58 -29.6619 1032.91 -29.6072 1033.34C-29.5518 1033.77 -33.8291 1034.67 -39.1113 1035.35C-51.6671 1036.96 -62.919 1034.6 -53.7176 1032.3C-51.7214 1031.8 -49.5714 1030.77 -48.939 1030.02C-47.8595 1028.74 -34.6303 1028.83 -33.2334 1030.13C-32.8789 1030.46 -36.4163 1030.78 -41.0953 1030.86ZM-68.5606 1011.56C-66.9339 1011.82 -60.8382 1023.87 -61.0979 1026.32C-61.3789 1028.98 -62.9462 1026.54 -65.4876 1019.49C-66.8543 1015.7 -68.3452 1012.62 -68.8021 1012.66C-69.578 1012.71 -67.1121 1019.41 -62.9353 1028.59L-61.1254 1032.57L-65.0163 1029.45C-69.8697 1025.55 -71.2895 1022.54 -72.6874 1013.16C-73.9086 1004.96 -73.2 1002.22 -71.2929 1007.75C-70.6171 1009.72 -69.3878 1011.43 -68.5606 1011.56Z" fill="#1ABC00" fill-opacity="0.43"/>
</svg>
