<svg width="34" height="33" viewBox="0 0 34 33" fill="none" xmlns="http://www.w3.org/2000/svg">
<rect x="0.8125" y="0.568848" width="33.045" height="32.0253" rx="16.0127" fill="white"/>
<path d="M11.532 19.0597L10.7791 21.7837L8.02718 21.8401C7.20477 20.3618 6.73828 18.6704 6.73828 16.873C6.73828 15.135 7.17443 13.4959 7.94755 12.0527H7.94814L10.3981 12.488L11.4713 14.8482C11.2467 15.4828 11.1243 16.1641 11.1243 16.873C11.1244 17.6424 11.2682 18.3796 11.532 19.0597Z" fill="#FBBB00"/>
<path d="M28.1794 14.9146C28.3036 15.5486 28.3684 16.2034 28.3684 16.8726C28.3684 17.623 28.287 18.355 28.1319 19.061C27.6054 21.4637 26.2297 23.5617 24.324 25.0464L24.3234 25.0458L21.2376 24.8932L20.8008 22.251C22.0654 21.5322 23.0536 20.4075 23.5741 19.061H17.791V14.9146H23.6585H28.1794Z" fill="#518EF8"/>
<path d="M24.3237 25.0456L24.3243 25.0461C22.4709 26.4899 20.1165 27.3538 17.5536 27.3538C13.4349 27.3538 9.85404 25.1227 8.02734 21.8395L11.5322 19.0591C12.4455 21.4214 14.7969 23.1031 17.5536 23.1031C18.7384 23.1031 19.8485 22.7926 20.8011 22.2507L24.3237 25.0456Z" fill="#28B446"/>
<path d="M24.4564 8.80413L20.9527 11.584C19.9669 10.9868 18.8016 10.6418 17.5531 10.6418C14.734 10.6418 12.3387 12.4006 11.4711 14.8476L7.94786 12.0522H7.94727C9.74722 8.68896 13.3732 6.39111 17.5531 6.39111C20.1773 6.39111 22.5833 7.29702 24.4564 8.80413Z" fill="#F14336"/>
</svg>
