<svg width="14" height="24" viewBox="0 0 14 24" fill="none" xmlns="http://www.w3.org/2000/svg">
<path d="M3.12014 8.73324L3.03769 8.67082C4.05433 7.32785 4.41584 6.77951 4.75152 6.0787C5.04953 5.45652 5.21241 4.98185 5.36367 4.29434L5.46467 4.31656L5.36367 4.29434C5.4554 3.87747 5.46901 3.68091 5.47192 2.6071C5.47372 1.94356 5.47733 1.57978 5.5165 1.36744C5.53671 1.25787 5.56836 1.17547 5.62346 1.11051C5.67737 1.04695 5.74581 1.01015 5.81329 0.97687L3.12014 8.73324ZM3.12014 8.73324L3.03769 8.67083C2.07735 9.93949 1.8611 10.2615 1.5337 10.9193C1.02698 11.9374 0.862084 12.7268 0.902418 13.9314L1.00577 13.928L0.902418 13.9314C0.996038 16.7254 2.33327 18.9481 4.57589 20.0033L4.61992 19.9098L4.57589 20.0033C4.73122 20.0764 4.82222 20.1248 4.87131 20.1598C4.87629 20.1633 4.88046 20.1664 4.88395 20.1692C4.86661 20.2046 4.83593 20.2611 4.7923 20.3368C4.7346 20.4369 4.65829 20.5638 4.57083 20.7053C4.39592 20.9882 4.17759 21.3277 3.9767 21.6254L4.06242 21.6833L3.9767 21.6254C3.76603 21.9376 3.63952 22.1404 3.58725 22.3008C3.55982 22.385 3.55124 22.4615 3.56226 22.5386C3.57304 22.6139 3.60164 22.6829 3.63765 22.7525L3.7295 22.705L3.63765 22.7525C3.6871 22.8482 3.78971 22.9342 3.89167 22.9944C3.99418 23.055 4.1195 23.1034 4.22864 23.1034C4.27723 23.1034 4.33571 23.0834 4.38334 23.0631C4.43543 23.0408 4.49222 23.0105 4.54229 22.9766L4.54231 22.9766M3.12014 8.73324L4.54231 22.9766M4.54231 22.9766C4.57659 22.9534 4.61474 22.9167 4.65356 22.8749C4.69368 22.8317 4.73931 22.7778 4.78889 22.7156C4.88812 22.5912 5.00593 22.4304 5.13134 22.2492C5.38221 21.887 5.66619 21.4396 5.89646 21.0325L5.80645 20.9816M4.54231 22.9766L5.80645 20.9816M5.80645 20.9816L5.89647 21.0325L6.19063 20.5123L6.34709 20.5381C6.96706 20.6402 7.98466 20.5311 8.73041 20.2875C11.2707 19.4573 13.0283 17.0847 13.4305 13.9826C13.4732 13.6535 13.4974 13.1559 13.502 12.6785C13.5066 12.2021 13.4918 11.7364 13.4543 11.473C13.1517 9.3458 11.7304 6.75183 9.38087 4.00384L9.30227 4.07105M5.80645 20.9816L9.30227 4.07105M9.30227 4.07105L9.38087 4.00384C9.00867 3.56855 8.36478 2.88367 7.77652 2.28306M9.30227 4.07105L7.77652 2.28306M7.77652 2.28306C7.48217 1.98254 7.20103 1.70237 6.97398 1.48436M7.77652 2.28306L6.97398 1.48436M6.97398 1.48436C6.75049 1.26976 6.57127 1.10732 6.48509 1.05024L6.97398 1.48436ZM6.14571 0.899512C6.25614 0.912488 6.36138 0.968294 6.48509 1.05024L6.14571 0.899512ZM6.14571 0.899512C6.03147 0.886088 5.92829 0.920126 5.81331 0.976862L6.14571 0.899512ZM12.095 11.2909L12.1962 11.2694L12.095 11.2909C12.2292 11.9221 12.2407 13.1839 12.1172 13.9773C11.839 15.7642 11.042 17.2604 9.88308 18.1938C9.42052 18.5664 8.61049 18.9804 8.0681 19.1222C7.83004 19.1845 7.47236 19.2313 7.17799 19.2497C7.0308 19.259 6.90386 19.2608 6.81826 19.2548C6.81643 19.2547 6.81462 19.2545 6.81285 19.2544C7.42503 17.7926 7.72443 16.9169 8.02305 15.72C8.20752 14.9805 8.37076 14.1098 8.47317 13.3879C8.52436 13.027 8.56058 12.7017 8.57653 12.4477C8.58449 12.3209 8.58751 12.2101 8.58454 12.1208C8.58171 12.0359 8.57331 11.9566 8.55069 11.902C8.39892 11.5356 7.93894 11.4053 7.59705 11.6138L7.59703 11.6138C7.5424 11.6471 7.49325 11.6858 7.45122 11.7392C7.40942 11.7923 7.37843 11.8551 7.35353 11.932C7.30512 12.0818 7.27515 12.3013 7.24119 12.6406C7.1052 13.9982 6.75822 15.5951 6.30688 16.9395L6.40491 16.9724L6.30687 16.9395C6.18847 17.2923 5.99752 17.7969 5.82585 18.2243C5.74005 18.4379 5.65943 18.6314 5.59542 18.7763C5.56336 18.8489 5.53587 18.9084 5.51423 18.9518C5.51002 18.9603 5.50611 18.9679 5.5025 18.9749C5.48002 18.9678 5.45118 18.9573 5.41637 18.9432C5.32152 18.9051 5.1944 18.8458 5.0572 18.7764C4.78126 18.6369 4.47721 18.4626 4.32308 18.3458L4.26063 18.4283L4.32307 18.3458C4.14296 18.2094 3.91105 17.9932 3.69715 17.7688C3.48265 17.5439 3.29257 17.3174 3.19299 17.1615C2.48169 16.0478 2.08398 14.4604 2.21004 13.2515L2.10719 13.2408L2.21004 13.2515C2.33844 12.0195 2.73838 11.2034 4.12934 9.39345C5.51242 7.59373 6.0113 6.74336 6.41279 5.48282C6.63832 4.77489 6.81203 3.78172 6.81785 3.15975L7.25856 3.6111L7.25856 3.6111C7.59632 3.95697 8.08774 4.48979 8.34964 4.79393L8.428 4.72646L8.34964 4.79394C10.4536 7.23714 11.6914 9.39279 12.095 11.2909Z" fill="black" stroke="black" stroke-width="0.206821"/>
</svg>
